<svg xmlns="http://www.w3.org/2000/svg" xmlns:xlink="http://www.w3.org/1999/xlink" version="1.1" x="0px" y="0px" viewBox="0 0 100 125" style="enable-background:new 0 0 100 100;" xml:space="preserve"><g><path d="M38.6,24c0-2.9,2.3-5.2,5.2-5.2h12.4c2.9,0,5.2,2.3,5.2,5.2v5.8h5.5V24c0-5.9-4.8-10.7-10.7-10.7H43.8   c-5.9,0-10.7,4.8-10.7,10.7v5.8h5.5V24z"/><path d="M88.3,49.3l-29.6,10v4.8c0,2.1-1.7,3.8-3.8,3.8h-9.8c-2.1,0-3.8-1.7-3.8-3.8v-4.8l-29.6-10v37.4h76.7V49.3z"/><path d="M41.3,54.2c0-2.1,1.7-3.8,3.8-3.8h9.8c2.1,0,3.8,1.7,3.8,3.8v1.1l29.6-10V33.8H11.7v11.6l29.6,10V54.2z"/><path d="M45.1,54.1c-0.1,0-0.1,0.1-0.1,0.1v9.8c0,0.1,0.1,0.1,0.1,0.1h9.8c0.1,0,0.1-0.1,0.1-0.1v-9.8c0-0.1-0.1-0.1-0.1-0.1H45.1z   "/></g><text x="0" y="115" fill="#000000" font-size="5px" font-weight="bold" font-family="'Helvetica Neue', Helvetica, Arial-Unicode, Arial, Sans-serif">Created by Michal Beno</text><text x="0" y="120" fill="#000000" font-size="5px" font-weight="bold" font-family="'Helvetica Neue', Helvetica, Arial-Unicode, Arial, Sans-serif">from the Noun Project</text></svg>