<svg xmlns="http://www.w3.org/2000/svg" data-name="Layer 1" viewBox="0 0 100 125" x="0px" y="0px"><title>Artboard 13</title><path d="M1,36.4l1.12-7.09A2.67,2.67,0,0,1,5,27l5.8.41a30,30,0,0,1,2.36-4.68L9.45,18.33a2.69,2.69,0,0,1,.16-3.65l5.08-5.08a2.72,2.72,0,0,1,3.65-.16l4.43,3.73a30,30,0,0,1,4.68-2.36L27,5a2.69,2.69,0,0,1,2.27-2.86L36.4,1a2.68,2.68,0,0,1,3,2l1.4,5.66a30.1,30.1,0,0,1,5.17.8l3.07-4.93a2.68,2.68,0,0,1,3.52-1L59,6.86a2.68,2.68,0,0,1,1.28,3.42L58.1,15.67c.71.59,1.35,1.18,1.94,1.76s1.17,1.23,1.76,1.94l5.39-2.18a2.68,2.68,0,0,1,3.42,1.28l3.26,6.4a2.69,2.69,0,0,1-1,3.52L68,31.44H65.2A8.18,8.18,0,0,0,57,39l-.06.69-1.05.44-.53-.44a8.23,8.23,0,0,0-5.29-1.94H49.8A11.12,11.12,0,1,0,37.7,49.8a8.2,8.2,0,0,0,1.93,5.55l.45.54q-.23.52-.44,1.05L39,57a8.17,8.17,0,0,0-7.52,8.2V68l-3.06,4.91a2.68,2.68,0,0,1-3.52,1l-6.4-3.26a2.68,2.68,0,0,1-1.28-3.42l2.18-5.38c-.72-.6-1.36-1.18-1.94-1.76s-1.17-1.23-1.76-1.94l-5.38,2.18A2.68,2.68,0,0,1,6.86,59L3.6,52.61a2.68,2.68,0,0,1,1-3.52L9.51,46a30.11,30.11,0,0,1-.8-5.17l-5.66-1.4A2.69,2.69,0,0,1,1,36.4Zm95.76,26.4A2.4,2.4,0,0,1,99,65.2v5.85a2.4,2.4,0,0,1-2.21,2.41l-4.55.39a24.5,24.5,0,0,1-3,7.27l2.94,3.5A2.4,2.4,0,0,1,92,87.89L87.89,92a2.43,2.43,0,0,1-.79.53,2.39,2.39,0,0,1-.91.18,2.42,2.42,0,0,1-1.56-.57l-3.5-2.94a24.56,24.56,0,0,1-7.27,3l-.39,4.55A2.41,2.41,0,0,1,71,99H65.2a2.4,2.4,0,0,1-2.41-2.21l-.39-4.55a24.5,24.5,0,0,1-7.27-3l-3.5,2.94A2.4,2.4,0,0,1,48.36,92l-4.14-4.14a2.41,2.41,0,0,1-.14-3.26L47,81.12a24.54,24.54,0,0,1-3-7.27l-4.55-.39a2.4,2.4,0,0,1-2.21-2.41V65.2a2.4,2.4,0,0,1,2.21-2.41L44,62.4a24.5,24.5,0,0,1,3-7.27l-2.94-3.5a2.41,2.41,0,0,1,.14-3.26l4.14-4.14a2.4,2.4,0,0,1,3.26-.14L55.13,47a24.52,24.52,0,0,1,7.27-3l.39-4.55a2.4,2.4,0,0,1,2.4-2.21h5.86a2.4,2.4,0,0,1,2.41,2.21L73.85,44a24.48,24.48,0,0,1,7.27,3l3.5-2.94a2.4,2.4,0,0,1,3.26.14L92,48.36a2.4,2.4,0,0,1,.14,3.26l-2.94,3.5a24.53,24.53,0,0,1,3,7.27ZM80.11,68.13A12,12,0,1,0,76.6,76.6,12,12,0,0,0,80.11,68.13ZM68.12,62a6.18,6.18,0,1,0,6.18,6.18A6.15,6.15,0,0,0,68.12,62Z"/><text x="0" y="115" fill="#000000" font-size="5px" font-weight="bold" font-family="'Helvetica Neue', Helvetica, Arial-Unicode, Arial, Sans-serif">Created by Gregor Črešnar</text><text x="0" y="120" fill="#000000" font-size="5px" font-weight="bold" font-family="'Helvetica Neue', Helvetica, Arial-Unicode, Arial, Sans-serif">from the Noun Project</text></svg>