<svg xmlns="http://www.w3.org/2000/svg" data-name="Layer 1" viewBox="0 0 100 125" x="0px" y="0px"><title>Artboard 10</title><path d="M44.38,75.93a9.94,9.94,0,1,1,11.24,0,14.47,14.47,0,0,1,9,13.38v4.95a2,2,0,0,1-2,2H37.45a2,2,0,0,1-2-2V89.31A14.47,14.47,0,0,1,44.38,75.93ZM27.6,46.14a2,2,0,0,0,2-2V39.16a14.47,14.47,0,0,0-9-13.38,9.94,9.94,0,1,0-11.24,0,14.47,14.47,0,0,0-9,13.38V44.1a2,2,0,0,0,2,2Zm63-20.37a9.95,9.95,0,1,0-11.24,0,14.47,14.47,0,0,0-9,13.38V44.1a2,2,0,0,0,2,2H97.5a2,2,0,0,0,2-2V39.16A14.47,14.47,0,0,0,90.57,25.77Zm-63,56.39a3.92,3.92,0,1,0,4.15-6.65A34.88,34.88,0,0,1,16.36,54.25a3.92,3.92,0,0,0-7.62,1.83A42.78,42.78,0,0,0,27.56,82.16ZM68.42,7.9a42.52,42.52,0,0,0-36.84,0A3.92,3.92,0,1,0,35,15a34.69,34.69,0,0,1,30,0A3.92,3.92,0,1,0,68.42,7.9ZM88.48,51.35a3.92,3.92,0,0,0-4.73,2.89A34.88,34.88,0,0,1,68.4,75.51a3.92,3.92,0,1,0,4.15,6.65A42.78,42.78,0,0,0,91.37,56.08,3.92,3.92,0,0,0,88.48,51.35Z"/><text x="0" y="115" fill="#000000" font-size="5px" font-weight="bold" font-family="'Helvetica Neue', Helvetica, Arial-Unicode, Arial, Sans-serif">Created by Gregor Črešnar</text><text x="0" y="120" fill="#000000" font-size="5px" font-weight="bold" font-family="'Helvetica Neue', Helvetica, Arial-Unicode, Arial, Sans-serif">from the Noun Project</text></svg>