<svg xmlns="http://www.w3.org/2000/svg" xmlns:xlink="http://www.w3.org/1999/xlink" version="1.1" x="0px" y="0px" viewBox="0 0 100 125" enable-background="new 0 0 100 100" xml:space="preserve"><path fill="#000000" d="M43.333,5H10C8.167,5,6.667,6.5,6.667,8.333v53.333C6.667,63.5,8.167,65,10,65h17.598l-7.426,22.279  c-0.582,1.746,0.362,3.634,2.108,4.216c0.35,0.116,0.705,0.172,1.054,0.172c1.396,0,2.696-0.883,3.162-2.28L34.625,65h12.042v26.667  C46.667,93.508,48.159,95,50,95s3.333-1.492,3.333-3.333V65h12.042l8.129,24.387c0.466,1.397,1.767,2.28,3.162,2.28  c0.349,0,0.705-0.056,1.055-0.172c1.746-0.582,2.69-2.47,2.108-4.216L72.403,65H90c1.834,0,3.333-1.5,3.333-3.333V8.333  C93.333,6.5,91.834,5,90,5H56.667 M26.667,51.667c-7.364,0-13.333-5.97-13.333-13.333S19.303,25,26.667,25v13.333H40  C40,45.697,34.031,51.667,26.667,51.667z M33.333,31.667V18.333c7.364,0,13.333,5.969,13.333,13.333H33.333z M73.333,51.667h-20V45  h20V51.667z M86.667,38.333H53.333v-6.667h33.333V38.333z M86.667,25H53.333v-6.667h33.333V25z"/><text x="0" y="115" fill="#000000" font-size="5px" font-weight="bold" font-family="'Helvetica Neue', Helvetica, Arial-Unicode, Arial, Sans-serif">Created by Jamison Wieser</text><text x="0" y="120" fill="#000000" font-size="5px" font-weight="bold" font-family="'Helvetica Neue', Helvetica, Arial-Unicode, Arial, Sans-serif">from the Noun Project</text></svg>