<svg xmlns="http://www.w3.org/2000/svg" xmlns:xlink="http://www.w3.org/1999/xlink" version="1.1" x="0px" y="0px" viewBox="0 0 512 640" style="enable-background:new 0 0 512 512;" xml:space="preserve"><g><g><path d="M490.667,0H21.333v384h183.168l-91.584,91.584c-8.341,8.341-8.341,21.824,0,30.165c4.16,4.16,9.621,6.251,15.083,6.251    c5.461,0,10.923-2.091,15.083-6.251l91.584-91.584v76.501c0,11.776,9.536,21.333,21.333,21.333    c11.797,0,21.333-9.557,21.333-21.333v-76.501l91.584,91.584c4.16,4.16,9.621,6.251,15.083,6.251    c5.461,0,10.923-2.091,15.083-6.251c8.341-8.341,8.341-21.824,0-30.165L307.499,384h183.168V0z M405.333,213.333    c0,11.776-9.536,21.333-21.333,21.333c-11.797,0-21.333-9.557-21.333-21.333v-39.787l-92.992,77.504    c-1.195,0.981-2.56,1.515-3.861,2.197c-0.768,0.405-1.429,0.981-2.219,1.28c-2.453,0.939-5.013,1.472-7.573,1.472c0,0,0,0-0.021,0    c-2.901,0-5.739-0.683-8.448-1.835c-0.896-0.405-1.6-1.109-2.453-1.643c-1.429-0.853-2.944-1.536-4.181-2.773L192,200.832    l-48.917,48.917c-4.16,4.16-9.621,6.251-15.083,6.251c-5.461,0-10.923-2.091-15.083-6.251c-8.341-8.341-8.341-21.824,0-30.165    l64-64c8.341-8.341,21.824-8.341,30.165,0l50.219,50.219l67.776-56.469h-26.411c-11.797,0-21.333-9.557-21.333-21.333    s9.536-21.333,21.333-21.333H384c0.341,0,0.597,0.171,0.939,0.192c1.536,0.064,2.965,0.491,4.437,0.896    c1.237,0.32,2.475,0.512,3.605,1.045c1.173,0.533,2.133,1.387,3.2,2.155c1.216,0.875,2.453,1.664,3.456,2.795    c0.235,0.235,0.533,0.341,0.768,0.597c0.64,0.789,0.853,1.728,1.387,2.581c0.789,1.259,1.579,2.453,2.091,3.861    c0.512,1.451,0.683,2.901,0.896,4.416c0.128,0.96,0.555,1.813,0.555,2.795V213.333z"/></g></g><text x="0" y="527" fill="#000000" font-size="5px" font-weight="bold" font-family="'Helvetica Neue', Helvetica, Arial-Unicode, Arial, Sans-serif">Created by Creativebox</text><text x="0" y="532" fill="#000000" font-size="5px" font-weight="bold" font-family="'Helvetica Neue', Helvetica, Arial-Unicode, Arial, Sans-serif">from the Noun Project</text></svg>