<svg xmlns="http://www.w3.org/2000/svg" xmlns:xlink="http://www.w3.org/1999/xlink" version="1.1" x="0px" y="0px" viewBox="0 0 100 125" enable-background="new 0 0 100 100" xml:space="preserve"><path fill-rule="evenodd" clip-rule="evenodd" fill="#000000" d="M91.945,89.534H49.953H7.961c-2.276,0-3.699-2.477-2.561-4.459  l9.931-17.293h69.244l9.931,17.293C95.643,87.057,94.221,89.534,91.945,89.534z M32.553,38.162h34.8l12.742,21.735H19.811  L32.553,38.162z M64.345,43.093H35.561l-6.95,11.855h42.684L64.345,43.093z M47.392,11.952c1.138-1.982,3.983-1.982,5.121,0  l10.67,18.283h-26.19L47.392,11.952z M49.953,17.369l-4.824,7.923h9.345L49.953,17.369z"/><text x="0" y="115" fill="#000000" font-size="5px" font-weight="bold" font-family="'Helvetica Neue', Helvetica, Arial-Unicode, Arial, Sans-serif">Created by Nico Tzogalis</text><text x="0" y="120" fill="#000000" font-size="5px" font-weight="bold" font-family="'Helvetica Neue', Helvetica, Arial-Unicode, Arial, Sans-serif">from the Noun Project</text></svg>