<?xml version="1.0" encoding="utf-8"?>
<!-- Generator: Adobe Illustrator 20.1.0, SVG Export Plug-In . SVG Version: 6.00 Build 0)  -->
<svg version="1.1" id="Layer_1" xmlns="http://www.w3.org/2000/svg" xmlns:xlink="http://www.w3.org/1999/xlink" x="0px" y="0px"
	 viewBox="0 0 100 100" enable-background="new 0 0 100 100" xml:space="preserve">
<path id="accounting" fill="#CCCCCC" d="M76.4,7.8h-53c-1.4,0-2.5,1.1-2.5,2.5v79.3c0,1.4,1.1,2.5,2.5,2.5h53c1.4,0,2.5-1.1,2.5-2.5
	V10.3C78.9,8.9,77.8,7.8,76.4,7.8z M52.5,11.8c8.6,0,15.6,7,15.6,15.6H52.5V11.8z M49.9,14.4V30h15.6c0,8.6-7,15.6-15.6,15.6
	s-15.6-7-15.6-15.6S41.3,14.4,49.9,14.4L49.9,14.4z M35.1,83.7v3.7h-2.7v-3.5c-3.8-0.4-6-2.1-7.8-5.4l3.3-3.1c1,2,2.7,3.9,5.2,3.9
	c1.9,0,3.5-1.5,3.6-3.5c0-0.1,0-0.1,0-0.2c0-2.5-2.6-3.4-5.2-4.6c-2.6-1.2-5.2-2.9-5.2-7.1c0-4.1,2.3-7.1,6.3-7.8v-3.4h2.7v3.4
	c2.3,0.2,4.4,1.3,5.8,3.1l-2.5,3.5c-0.9-1.3-2.4-2.2-4.1-2.2c-1.6,0-3,1.3-3.1,2.9c0,2.2,2.6,3,5.2,4.3c2.6,1.3,5.2,3.1,5.2,7.4
	C41.8,79.3,39.3,82.9,35.1,83.7z M73.9,87.5H48.1c-1,0-1.8-0.8-1.8-1.8c0-1,0.8-1.8,1.8-1.8h25.8c1,0,1.8,0.8,1.8,1.8
	C75.7,86.7,74.9,87.5,73.9,87.5L73.9,87.5z M73.9,79.6H48.1c-1,0-1.8-0.8-1.8-1.8c0-1,0.8-1.8,1.8-1.8h25.8c1,0,1.8,0.8,1.8,1.8
	C75.7,78.8,74.9,79.6,73.9,79.6L73.9,79.6z M73.9,71.7H48.1c-1,0-1.8-0.8-1.8-1.8c0-1,0.8-1.8,1.8-1.8h25.8c1,0,1.8,0.8,1.8,1.8
	C75.7,70.9,74.9,71.7,73.9,71.7L73.9,71.7z M73.9,63.8H48.1c-1,0-1.8-0.8-1.8-1.8c0-1,0.8-1.8,1.8-1.8h25.8c1,0,1.8,0.8,1.8,1.8
	C75.7,63,74.9,63.8,73.9,63.8L73.9,63.8z M73.9,55.9H48.1c-1,0-1.8-0.8-1.8-1.8c0-1,0.8-1.8,1.8-1.8h25.8c1,0,1.8,0.8,1.8,1.8
	S74.9,55.9,73.9,55.9L73.9,55.9z"/>
</svg>
