<?xml version="1.0" encoding="utf-8"?>
<!-- Generator: Adobe Illustrator 20.1.0, SVG Export Plug-In . SVG Version: 6.00 Build 0)  -->
<svg version="1.1" id="Layer_1" xmlns="http://www.w3.org/2000/svg" xmlns:xlink="http://www.w3.org/1999/xlink" x="0px" y="0px"
	 viewBox="0 0 100 100" enable-background="new 0 0 100 100" xml:space="preserve">
<path id="anatomy" fill="#CCCCCB" d="M85.1,27.8L85.1,27.8c-8.9-8.9-23.5-8.9-32.4,0l-1.1,1.1c-0.7,0.7-1.7,0.7-2.4,0l-1.1-1.1
	c-8.9-8.9-23.5-8.9-32.4,0l0,0c-8.9,8.9-8.9,23.5,0,32.4l33.5,33.6c0.7,0.7,1.7,0.7,2.4,0l33.5-33.6C94,51.4,94,36.8,85.1,27.8z
	 M84.6,54.2H69.4c-1,0-1.8-0.6-2.1-1.6L63,39L53.3,66c-0.3,0.9-1.1,1.5-2,1.5l-0.1,0c-0.9,0-1.7-0.5-2.1-1.4l-9.9-23.9l-4.8,10.6
	c-0.4,0.8-1.2,1.3-2,1.3H16.3C15,54,14,53,14,51.8c0-1.2,1-2.2,2.2-2.2H31l6.3-14c0.4-0.8,1.2-1.3,2.1-1.3c0.9,0,1.7,0.6,2,1.4
	L51,59l10-27.7c0.3-0.9,1.2-1.5,2.1-1.5c1,0,1.8,0.6,2.1,1.6L71,49.8h13.6c1.2,0,2.2,1,2.2,2.2C86.9,53.2,85.9,54.2,84.6,54.2z"/>
</svg>
