<?xml version="1.0" encoding="utf-8"?>
<!-- Generator: Adobe Illustrator 20.1.0, SVG Export Plug-In . SVG Version: 6.00 Build 0)  -->
<svg version="1.1" id="Layer_1" xmlns="http://www.w3.org/2000/svg" xmlns:xlink="http://www.w3.org/1999/xlink" x="0px" y="0px"
	 viewBox="0 0 100 100" enable-background="new 0 0 100 100" xml:space="preserve">
<g id="biology">
	<path fill="#CCCCCC" d="M65.6,40.3c-1.7,0-3.2,1.4-3.2,3.2v5v1.3c0,2.8-1,5.4-2.5,7.5c-0.2,0.3-0.5,0.6-0.8,0.9
		c-0.3,0.3-0.6,0.6-0.9,0.9c-0.3,0.3-0.6,0.5-0.9,0.8c-2.1,1.6-4.7,2.5-7.5,2.5h-1.3h-5H21.4c-4.1,0-8.1,1.3-11.4,3.8
		c-1.4,1-1.7,3-0.6,4.4c0.6,0.8,1.6,1.3,2.5,1.3c1,0,2-0.5,2.7-1.5c0.3-0.1,0.4-0.1,0.7-0.1l14,14c-0.1,0.3-0.1,0.4-0.1,0.7
		c-2,1.3-1.9,4-0.2,5.2c0.6,0.4,1.2,0.6,1.9,0.6c1,0,1.9-0.4,2.5-1.3c2.5-3.3,3.8-7.2,3.8-11.4v-3.2c0-1.7-1.4-3.2-3.2-3.2
		c-1.7,0-3.2,1.4-3.2,3.2V77l-8.2-8.2h27.1c5.2,0,10-2.1,13.4-5.6s5.6-8.2,5.6-13.4v-6.3C68.8,41.8,67.3,40.3,65.6,40.3z"/>
	<path fill="#CCCCCC" d="M90.3,29c-1-1.4-3-1.7-4.4-0.6c-0.5,0.4-1.1,0.8-1.7,1.1L70.3,15.4c0.1-0.3,0.1-0.4,0.1-0.7
		c2-1.3,1.9-4,0.2-5.2c-1.4-1-3.4-0.8-4.4,0.6c-2.5,3.3-3.8,7.2-3.8,11.4v3.2c0,1.7,1.4,3.2,3.2,3.2c1.7,0,3.2-1.4,3.2-3.2v-1.8
		l7.9,8.1H49.8c-5.2,0-10,2.1-13.4,5.6c-3.4,3.4-5.6,8.2-5.6,13.4v6.3c0,1.7,1.4,3.2,3.2,3.2c1.7,0,3.2-1.4,3.2-3.2v-5l6.3,6.3
		c1.2,1.2,2.8,1.9,4.5,1.9h1.9c1.3,0,2.6-0.3,3.7-0.8L38.8,43.8c0.6-1.1,1.3-2.1,2.1-2.9c0.9-0.8,1.8-1.5,2.9-2.1l14.8,14.8
		c0.5-1.1,0.8-2.4,0.8-3.7V48c0-1.7-0.7-3.3-1.9-4.5l-6.3-6.3h27.1c4.1,0,8.1-1.3,11.4-3.8C91,32.4,91.3,30.4,90.3,29z"/>
</g>
</svg>
