<?xml version="1.0" encoding="utf-8"?>
<!-- Generator: Adobe Illustrator 20.1.0, SVG Export Plug-In . SVG Version: 6.00 Build 0)  -->
<svg version="1.1" id="Layer_1" xmlns="http://www.w3.org/2000/svg" xmlns:xlink="http://www.w3.org/1999/xlink" x="0px" y="0px"
	 viewBox="0 0 100 100" enable-background="new 0 0 100 100" xml:space="preserve">
<g>
	<path d="M40.4,22.4c0-2.9,2.3-5.2,5.2-5.2H58c2.9,0,5.2,2.3,5.2,5.2v5.8h5.5v-5.8c0-5.9-4.8-10.7-10.7-10.7H45.6
		c-5.9,0-10.7,4.8-10.7,10.7v5.8h5.5V22.4z"/>
	<path d="M90.1,47.7l-29.6,10v4.8c0,2.1-1.7,3.8-3.8,3.8h-9.8c-2.1,0-3.8-1.7-3.8-3.8v-4.8l-29.6-10v37.4h76.7L90.1,47.7L90.1,47.7z
		"/>
	<path d="M43.1,52.6c0-2.1,1.7-3.8,3.8-3.8h9.8c2.1,0,3.8,1.7,3.8,3.8v1.1l29.6-10V32.2H13.5v11.6l29.6,10V52.6z"/>
	<path d="M46.9,52.5C46.8,52.5,46.8,52.6,46.9,52.5l-0.1,9.9c0,0.1,0.1,0.1,0.1,0.1h9.8c0.1,0,0.1-0.1,0.1-0.1v-9.8
		c0-0.1-0.1-0.1-0.1-0.1S46.9,52.5,46.9,52.5z"/>
</g>
</svg>
