<?xml version="1.0" encoding="utf-8"?>
<!-- Generator: Adobe Illustrator 20.1.0, SVG Export Plug-In . SVG Version: 6.00 Build 0)  -->
<svg version="1.1" id="Layer_1" xmlns="http://www.w3.org/2000/svg" xmlns:xlink="http://www.w3.org/1999/xlink" x="0px" y="0px"
	 viewBox="0 0 100 100" enable-background="new 0 0 100 100" xml:space="preserve">
<path id="chemistry" fill="#CCCCCC" d="M86,82.5L62.1,49.6v-32c0-5.7-4.2-6.1-5.4-6.2H43.8c-4.5,0-5.4,2.5-5.5,4v2.2v32L14.1,82.9
	l0,0l-1.8,2.4c-1.2,2.2-1.5,5.3,5.4,5.3h65.5C92,90.5,86,82.5,86,82.5z M44.4,18.6v-1h11.5v1V30H44.4V18.6z M50.2,55.9
	c0-0.7,0.5-1.2,1.2-1.2h6.3l1.8,2.4h-8.1C50.7,57.1,50.2,56.5,50.2,55.9z M57,65.9c0-0.7,0.6-1.2,1.2-1.2h6.7l1.8,2.4h-8.5
	C57.6,67.1,57,66.6,57,65.9z M65.2,75.9c0-0.7,0.5-1.2,1.2-1.2h5.8l1.8,2.5h-7.5C65.7,77.1,65.2,76.6,65.2,75.9z M79.1,84.3l0.1,0.1
	l0,0l-0.5-0.1H79.1z"/>
</svg>
