<?xml version="1.0" encoding="utf-8"?>
<!-- Generator: Adobe Illustrator 20.1.0, SVG Export Plug-In . SVG Version: 6.00 Build 0)  -->
<svg version="1.1" id="Layer_1" xmlns="http://www.w3.org/2000/svg" xmlns:xlink="http://www.w3.org/1999/xlink" x="0px" y="0px"
	 viewBox="0 0 100 100" enable-background="new 0 0 100 100" xml:space="preserve">
<g id="economics">
	<path fill="#C9C9C9" d="M93.7,50C93.7,39.1,89.1,28.8,81,21.1c-8.1-7.7-19-12-30.5-12.1H50C26.2,9.2,6.8,27.6,6.8,50.2c0,0,0,0,0,0
		c0,0,0,0,0,0c0,0.1,0,0.1,0,0.2c0.1,11,4.6,21.2,12.8,29c8.2,7.7,19.1,12,30.6,12h0h0l0.2,0c23.9-0.1,43.2-18.5,43.2-41.1
		c0,0,0,0,0-0.1c0,0,0,0,0,0C93.7,50.1,93.7,50,93.7,50z M79.5,25.5c-3,1.9-6.1,3.4-9.4,4.7c-2.1-4.8-5.1-9.3-8.7-13.4
		c-0.9-1-1.8-1.9-2.7-2.8C66.8,15.6,74.1,19.8,79.5,25.5z M41.8,13.9c-4.9,4.7-8.8,10.2-11.4,16.2c-3.3-1.2-6.4-2.8-9.4-4.7
		C26.4,19.8,33.6,15.6,41.8,13.9z M18.3,28.6c3.4,2.1,6.9,3.9,10.6,5.3c-1.4,3.9-2.2,7.9-2.6,12.1c-0.1,0.7-0.1,1.5-0.1,2.2H11.1
		C11.5,40.9,14.1,34.2,18.3,28.6z M18.4,71.8c-4.2-5.6-6.9-12.3-7.3-19.6h15.1c0.2,4.9,1.1,9.7,2.6,14.3
		C25.2,67.9,21.7,69.7,18.4,71.8z M21,74.9c3-1.8,6.1-3.4,9.3-4.6c2.2,4.9,5.1,9.6,8.9,13.8c0.7,0.8,1.4,1.5,2.2,2.3
		C33.4,84.6,26.3,80.5,21,74.9z M52.4,87V76.7h-4.2V87c-2.1-1.7-4-3.5-5.7-5.5c-3.5-3.9-6.1-8.1-8.1-12.6c0.4-0.1,0.7-0.2,1.1-0.3
		c-0.1,0-0.1-0.1-0.2-0.1l-2.6-1.4l0.6-2.1c-0.1,0-0.2,0.1-0.3,0.1c-1.4-4.2-2.2-8.6-2.4-12.9h7.9c-1.4-1.1-2.6-2.4-3.5-4h-4.4
		c0.2-4.4,1.1-8.7,2.5-12.9c0.8,0.2,1.6,0.5,2.5,0.7c0.8-1.3,1.8-2.4,3.1-3.4c-1.4-0.3-2.7-0.6-4.1-1c3-6.6,7.5-12.7,13.7-17.7v9.8
		h4.2v-9.8c2.1,1.7,4,3.5,5.7,5.5c3.4,3.8,6,7.9,7.9,12.2c-0.2,0.1-0.4,0.1-0.5,0.2l0.9,0.4l-0.8,3l-0.2,0.8
		c0.7-0.2,1.5-0.4,2.2-0.6c1.5,4.2,2.3,8.5,2.5,12.9h-6c1,1.1,1.9,2.4,2.5,4h3.6c-0.2,4.4-1,8.7-2.4,12.9c-0.9-0.3-1.8-0.5-2.7-0.7
		c-0.9,1.3-2,2.4-3.4,3.4c1.5,0.3,3.1,0.7,4.6,1.1C63.2,75.7,58.6,81.9,52.4,87z M59.2,86.4c4.7-4.7,8.5-10.1,11-16.1
		c3.2,1.2,6.3,2.8,9.3,4.6C74.2,80.5,67.2,84.6,59.2,86.4z M82.2,71.8c-3.3-2.1-6.8-3.9-10.5-5.3c1.3-3.8,2.1-7.7,2.5-11.7
		c0.1-0.9,0.1-1.7,0.2-2.6h15.1C89,59.5,86.4,66.2,82.2,71.8z M74.3,48.2c-0.2-4.9-1.1-9.7-2.8-14.3c3.7-1.4,7.2-3.2,10.6-5.3
		c4.2,5.6,6.9,12.3,7.3,19.6H74.3z"/>
	<path fill="#C9C9C9" d="M53.6,46.5c-5.1-1.7-7.2-3-7.2-4.8c0-1.6,1.2-3.2,5.1-3.2c4.3,0,7,1.3,8.5,2l1.8-6.3
		c-2.1-0.9-4.7-1.7-8.6-1.8v-4.9h-5.8v5.3c-6.3,1.1-10,5-10,10c0,5.4,4.3,8.2,10.7,10.3c4.4,1.4,6.3,2.7,6.3,4.9
		c0,2.2-2.3,3.5-5.7,3.5c-3.8,0-7.3-1.2-9.8-2.5l-1.8,6.6c2.2,1.2,6.1,2.2,10.1,2.4v5.3H53v-5.8C59.8,66.2,63.4,62,63.4,57
		C63.4,51.9,60.7,48.8,53.6,46.5z"/>
</g>
</svg>
