<?xml version="1.0" encoding="utf-8"?>
<!-- Generator: Adobe Illustrator 20.1.0, SVG Export Plug-In . SVG Version: 6.00 Build 0)  -->
<svg version="1.1" id="Layer_1" xmlns="http://www.w3.org/2000/svg" xmlns:xlink="http://www.w3.org/1999/xlink" x="0px" y="0px"
	 viewBox="0 0 100 100" enable-background="new 0 0 100 100" xml:space="preserve">
<path d="M7.9,37.5l1-6.2c0.2-1.2,1.3-2.1,2.5-2l5.1,0.4c0.6-1.4,1.3-2.8,2.1-4.1l-3.2-3.8c-0.8-0.9-0.7-2.3,0.1-3.2l4.4-4.4
	c0.9-0.9,2.2-0.9,3.2-0.1l3.9,3.3c1.3-0.8,2.7-1.5,4.1-2.1L30.5,10c-0.1-1.2,0.8-2.3,2-2.5l6.2-1c1.2-0.2,2.3,0.6,2.6,1.7l1.2,4.9
	c1.5,0.1,3,0.3,4.5,0.7l2.7-4.3c0.6-1.1,2-1.4,3.1-0.9l5.6,2.9c1.1,0.5,1.6,1.9,1.1,3l-1.9,4.7c0.6,0.5,1.2,1,1.7,1.5
	c0.5,0.5,1,1.1,1.5,1.7l4.7-1.9c1.1-0.5,2.4,0,3,1.1l2.8,5.6c0.6,1.1,0.2,2.4-0.9,3.1l-4.2,2.7h-2.4c-3.7,0-6.9,2.9-7.2,6.6
	l-0.1,0.6l-0.9,0.4l-0.5-0.4c-1.3-1.1-2.9-1.7-4.6-1.7h-0.2c-0.5-5.3-5.2-9.3-10.5-8.8c-5.3,0.5-9.3,5.2-8.8,10.5
	c0.4,4.7,4.1,8.4,8.8,8.8c-0.1,1.8,0.5,3.5,1.7,4.8l0.4,0.5c-0.1,0.3-0.3,0.6-0.4,0.9L41,55.5c-3.7,0.3-6.6,3.4-6.6,7.2v2.4
	l-2.7,4.3c-0.6,1.1-2,1.4-3.1,0.9l-5.6-2.8c-1.1-0.5-1.6-1.9-1.1-3l1.9-4.7c-0.6-0.5-1.2-1-1.7-1.5s-1-1.1-1.5-1.7L16,58.4
	c-1.2,0.5-2.5,0-3-1.2l-2.8-5.6c-0.6-1.1-0.2-2.4,0.9-3.1l4.3-2.7c-0.4-1.5-0.6-3-0.7-4.5l-4.9-1.2C8.5,39.8,7.7,38.7,7.9,37.5z
	 M91.4,60.5c1.1,0.1,2,1,2,2.1v5.1c0,1.1-0.8,2-1.9,2.1l-4,0.3c-0.5,2.2-1.4,4.4-2.6,6.4l2.6,3.1c0.7,0.8,0.6,2.1-0.2,2.9L83.6,86
	c-0.2,0.2-0.4,0.4-0.7,0.5c-0.3,0.1-0.5,0.2-0.8,0.2c-0.5,0-1-0.2-1.4-0.5l-3.1-2.6c-2,1.2-4.1,2.1-6.3,2.6l-0.3,4
	c-0.1,1.1-1,2-2.2,2h-5.1c-1.1,0-2-0.8-2.1-1.9l-0.3-4c-2.2-0.5-4.4-1.4-6.3-2.6L52,86.2c-0.8,0.7-2.1,0.6-2.9-0.2l-3.6-3.6
	c-0.8-0.8-0.8-2-0.1-2.8l2.5-3c-1.2-2-2.1-4.1-2.6-6.4l-4-0.3c-1.1-0.1-1.9-1-1.9-2.1v-5.1c0-1.1,0.8-2,1.9-2.1l4-0.3
	c0.5-2.2,1.4-4.4,2.6-6.4l-2.6-3.1c-0.7-0.8-0.7-2.1,0.1-2.8l3.6-3.6c0.8-0.8,2-0.8,2.8-0.1l3.1,2.5c2-1.2,4.1-2.1,6.3-2.6l0.3-4
	c0.1-1.1,1-1.9,2.1-1.9H69c1.1,0,2,0.8,2.1,1.9l0.3,4c2.2,0.5,4.4,1.4,6.3,2.6l3.1-2.6c0.8-0.7,2.1-0.7,2.8,0.1l3.6,3.6
	c0.8,0.8,0.8,2,0.1,2.8l-2.6,3.1c1.2,2,2.1,4.1,2.6,6.4L91.4,60.5z M76.9,65.2c0-5.8-4.7-10.5-10.5-10.5c-5.8,0-10.5,4.7-10.5,10.5
	c0,5.8,4.7,10.5,10.5,10.5c2.8,0,5.4-1.1,7.4-3.1C75.8,70.6,76.9,68,76.9,65.2z M66.4,59.8c-3,0-5.4,2.4-5.4,5.4s2.4,5.4,5.4,5.4
	s5.4-2.4,5.4-5.4C71.8,62.3,69.4,59.9,66.4,59.8C66.4,59.8,66.4,59.8,66.4,59.8z"/>
</svg>
