<?xml version="1.0" encoding="utf-8"?>
<!-- Generator: Adobe Illustrator 20.1.0, SVG Export Plug-In . SVG Version: 6.00 Build 0)  -->
<svg version="1.1" id="Layer_1" xmlns="http://www.w3.org/2000/svg" xmlns:xlink="http://www.w3.org/1999/xlink" x="0px" y="0px"
	 viewBox="0 0 100 100" style="enable-background:new 0 0 100 100;" xml:space="preserve">
<style type="text/css">
	.st0{fill:#CCCCCC;}
</style>
<g id="finance">
	<path class="st0" d="M50.5,87.4c-4.5,0-8.2-1-11.2-3.1c-0.7-0.5-0.8-1.4-0.3-2.1c0.5-0.7,1.4-0.8,2.1-0.3c2.4,1.7,5.5,2.6,9.3,2.6
		s6.9-0.8,9.2-2.6c0.7-0.5,1.6-0.3,2.1,0.3c0.5,0.7,0.3,1.6-0.3,2.1C58.7,86.5,54.9,87.4,50.5,87.4z"/>
	<path class="st0" d="M61.9,87.6c-0.5-0.7-1.4-0.8-2.1-0.3c-2.8,2-6.3,2.2-9.2,2.2c-4.3,0-7.1-0.7-9.3-2.3c-0.7-0.5-1.6-0.3-2.1,0.3
		c-0.5,0.7-0.3,1.6,0.3,2.1c1.6,1.2,3.3,1.9,5,2.2c0.3,3,3,5.6,6.2,5.6c3.1,0,5.8-2.4,6.2-5.6c1.7-0.5,3.4-1.2,4.9-2.2
		C62.3,89.3,62.5,88.2,61.9,87.6z M50.5,94.4c-1.3,0-2.3-0.8-2.9-2c0.9,0.1,2,0.1,2.9,0.1c0.9,0,1.9,0,2.9-0.1
		C53,93.6,51.8,94.4,50.5,94.4z"/>
	<g>
		<path class="st0" d="M50.5,20.9c-14.2,0-24.3,10.5-24.3,24.9c0,8.4,3.8,13.9,7.1,18.5C35.8,68.1,38,71.2,38,75
			c0,5,8.3,7.2,12.5,7.2S63,80.2,63,75c0-3.8,2.2-7.1,4.8-10.7c3.3-4.8,7.1-10.1,7.1-18.5C74.7,31.5,64.6,20.9,50.5,20.9z
			 M38.3,35.8c-0.3,0.5-0.7,0.6-1.3,0.6c-0.3,0-0.7-0.1-0.9-0.3c-0.6-0.5-0.8-1.5-0.2-2.1c3.3-4.1,7-6.4,11.6-7.3
			c0.8-0.1,1.6,0.5,1.7,1.3c0.1,0.8-0.5,1.6-1.3,1.7C44,30.6,41.1,32.3,38.3,35.8z M52,69.2V73c0,0.8-0.7,1.5-1.5,1.5
			c-0.8,0-1.5-0.7-1.5-1.5v-3.7c-3.1-0.5-5.5-2.1-6.4-3.5c-0.5-0.7-0.3-1.6,0.5-2.1c0.7-0.5,1.6-0.3,2.1,0.5
			c0.5,0.6,1.7,1.7,3.8,2.1v-9.5c-3.1-1.4-6.6-3.4-6.6-7.7c0-3.6,2.9-6.4,6.6-7.1v-3.7c0-0.8,0.7-1.5,1.5-1.5c0.8,0,1.5,0.7,1.5,1.5
			v3.7c3.1,0.5,5.4,2.1,6.4,3.4c0.5,0.7,0.3,1.6-0.5,2.1c-0.7,0.5-1.6,0.3-2.1-0.5c-0.5-0.6-1.7-1.6-3.8-2.1v9.7
			c3.1,1.4,6.6,3.3,6.6,7.6C58.7,65.7,55.8,68.5,52,69.2z"/>
		<path class="st0" d="M45.4,48.7c0,2.1,1.3,3.1,3.6,4.3v-8.2C46.7,45.4,45.4,47.1,45.4,48.7z"/>
		<path class="st0" d="M52,57.9v8.2c2.2-0.5,3.6-2.2,3.6-3.8C55.6,60.1,54.2,59,52,57.9z"/>
	</g>
	<g>
		<path class="st0" d="M52.5,7.3c0-0.5-0.2-1-0.6-1.4c-0.7-0.8-2.1-0.8-2.9,0c-0.5,0.5-0.6,0.9-0.6,1.4c0,0.5,0.2,1,0.6,1.4
			c0.3,0.3,0.7,0.5,1.2,0.6c-1,0.1-1.7,1-1.7,2.1s0.8,2,1.9,2.1c-0.5,0-0.9,0.2-1.3,0.5c-0.5,0.5-0.6,0.9-0.6,1.4
			c0,0.5,0.2,1,0.6,1.4c0.5,0.5,0.9,0.6,1.4,0.6c0.5,0,1-0.2,1.4-0.6c0.5-0.5,0.6-0.9,0.6-1.4c0-0.5-0.2-1.2-0.6-1.4
			c-0.3-0.3-0.8-0.5-1.3-0.5c1-0.1,1.9-0.9,1.9-2.1c0-1-0.7-1.9-1.7-2.1c0.5-0.1,0.8-0.3,1.2-0.6C52.3,8.3,52.5,7.7,52.5,7.3z"/>
		<path class="st0" d="M32.8,18.5c0.7-0.6,0.9-1.7,0.5-2.7c-0.6-0.8-1.6-1.2-2.6-0.7c0,0,0.1,0,0.1-0.1c0.5-0.5,0.6-0.9,0.6-1.4
			c0-0.5-0.2-1-0.6-1.4c-0.8-0.7-2.1-0.7-2.9,0c-0.5,0.5-0.6,0.9-0.6,1.4c0,0.5,0.2,1,0.6,1.4c0.5,0.5,0.9,0.6,1.4,0.6
			c0.3,0,0.6-0.1,0.8-0.2c-0.7,0.6-0.9,1.7-0.3,2.7c0.5,0.6,1,0.9,1.7,0.9c0.3,0,0.6-0.1,0.9-0.2v0.1c-0.5,0.5-0.6,0.9-0.6,1.4
			c0,0.5,0.2,1,0.6,1.4c0.5,0.5,0.9,0.6,1.4,0.6s1-0.2,1.4-0.6c0.5-0.5,0.6-0.9,0.6-1.4c0-0.5-0.2-1-0.6-1.4
			C34.4,18.2,33.5,18.1,32.8,18.5z"/>
		<path class="st0" d="M15,32.3c0.5,0,1-0.2,1.4-0.6c0.1-0.1,0.2-0.2,0.3-0.3c-0.2,0.9,0.2,2,1.2,2.3c0.3,0.1,0.5,0.2,0.8,0.2
			c0.7,0,1.3-0.5,1.7-1c-0.1,0.2-0.1,0.5-0.1,0.6c0,0.5,0.2,1.2,0.6,1.4c0.5,0.5,0.9,0.6,1.4,0.6c0.5,0,1-0.2,1.4-0.6
			c0.5-0.5,0.6-0.9,0.6-1.4s-0.2-1-0.6-1.4c-0.8-0.8-2.1-0.8-2.9,0c0,0.2-0.1,0.2-0.2,0.3c0.2-0.9-0.2-2-1.2-2.3
			c-0.9-0.3-2.1-0.1-2.6,0.7c0-0.2,0.1-0.3,0.1-0.5c0-0.5-0.2-1-0.6-1.4c-0.7-0.8-2.1-0.8-2.9,0c-0.5,0.5-0.6,0.9-0.6,1.4
			s0.2,1,0.6,1.4C13.8,32.2,14.4,32.3,15,32.3z"/>
		<path class="st0" d="M21.5,52.3c0.5-0.5,0.6-0.9,0.6-1.4s-0.2-1-0.6-1.4c-0.8-0.7-2.1-0.7-2.9,0C18.1,50,18,50.5,18,50.9
			c-0.3-0.9-1.3-1.5-2.2-1.3c-1,0.2-1.7,1-1.7,2.1c-0.1-0.3-0.3-0.6-0.5-0.8c-0.8-0.8-2.1-0.8-2.9,0c-0.5,0.5-0.6,0.9-0.6,1.4
			s0.2,1,0.6,1.4c0.5,0.5,0.9,0.6,1.4,0.6c0.5,0,1-0.2,1.4-0.6c0.5-0.5,0.6-0.8,0.6-1.4c0.3,0.8,1,1.3,2,1.3c0.1,0,0.2,0,0.3,0
			c1-0.2,1.7-1,1.7-2.1c0.1,0.3,0.3,0.6,0.5,0.8c0.5,0.5,0.9,0.6,1.4,0.6S21.2,52.8,21.5,52.3z"/>
		<path class="st0" d="M26.2,65.3c-0.5,0.5-0.6,0.9-0.6,1.4c0,0.5,0.1,0.8,0.3,1.2c-0.9-0.6-2-0.6-2.8,0.1c-0.8,0.7-0.9,1.9-0.3,2.7
			C22,70,20.7,70,20,70.7c-0.5,0.5-0.6,0.9-0.6,1.4s0.2,1,0.6,1.4c0.5,0.5,0.9,0.6,1.4,0.6s1-0.2,1.4-0.6c0.5-0.5,0.6-0.9,0.6-1.4
			c0-0.5-0.1-0.8-0.3-1.2c0.5,0.3,0.8,0.5,1.3,0.5c0.5,0,0.9-0.2,1.3-0.5c0.7-0.7,0.9-1.9,0.3-2.7c0.5,0.3,0.8,0.5,1.3,0.5
			s1-0.2,1.4-0.6c0.5-0.5,0.6-0.9,0.6-1.4c0-0.5-0.2-1-0.6-1.4C28.3,64.6,26.9,64.6,26.2,65.3z"/>
		<path class="st0" d="M70.8,15.3c0.3,0.1,0.5,0.2,0.8,0.2c0.5,0,1-0.2,1.4-0.6s0.6-0.9,0.6-1.4c0-0.5-0.2-1-0.6-1.4
			c-0.7-0.8-2.1-0.8-2.9,0c-0.5,0.5-0.6,0.9-0.6,1.4c0,0.5,0.2,1,0.6,1.4c0,0,0.1,0,0.1,0.1c-0.9-0.5-2-0.1-2.6,0.7
			c-0.6,0.8-0.5,2.1,0.5,2.7c-0.7-0.3-1.7-0.2-2.3,0.5c-0.5,0.5-0.6,0.9-0.6,1.4c0,0.5,0.2,1,0.6,1.4c0.5,0.5,0.9,0.6,1.4,0.6
			c0.5,0,1-0.2,1.4-0.6c0.5-0.5,0.6-0.9,0.6-1.4c0-0.5-0.2-1-0.6-1.4l0-0.2c0.3,0.1,0.6,0.2,0.9,0.2c0.7,0,1.3-0.3,1.7-0.9
			C71.7,17.1,71.5,16,70.8,15.3z"/>
		<path class="st0" d="M78.6,35.6c0.5,0,1-0.2,1.4-0.6c0.5-0.5,0.6-0.9,0.6-1.4c0-0.2,0-0.5-0.1-0.6c0.5,0.6,1,1,1.7,1
			c0.3,0,0.5,0,0.8-0.2c0.9-0.5,1.4-1.4,1.2-2.3c0.1,0.1,0.2,0.2,0.2,0.3c0.5,0.5,0.9,0.6,1.4,0.6s1-0.2,1.4-0.6
			c0.5-0.5,0.6-0.9,0.6-1.4s-0.2-1-0.6-1.4c-0.8-0.7-2.1-0.7-2.9,0c-0.5,0.5-0.6,0.9-0.6,1.4c0,0.2,0,0.5,0.1,0.5
			c-0.5-0.8-1.6-1.3-2.6-0.8c-0.9,0.5-1.4,1.4-1.2,2.3c-0.1-0.1-0.2-0.2-0.2-0.3c-0.8-0.8-2.1-0.8-2.9,0c-0.5,0.5-0.6,0.9-0.6,1.4
			s0.2,1,0.6,1.4C77.5,35.3,78,35.6,78.6,35.6z"/>
		<path class="st0" d="M90.2,50.7c-0.7-0.8-2.1-0.8-2.9,0c-0.2,0.2-0.5,0.5-0.5,0.8c0-1-0.7-1.9-1.7-2.1c-1-0.2-2,0.5-2.2,1.4
			c0-0.5-0.2-1-0.6-1.4c-0.8-0.7-2.1-0.7-2.9,0c-0.5,0.5-0.6,0.9-0.6,1.4s0.2,1,0.6,1.4c0.5,0.5,0.9,0.6,1.4,0.6
			c0.5,0,1-0.2,1.4-0.6c0.2-0.2,0.5-0.5,0.5-0.8c0,1,0.7,1.9,1.7,2.1c0.1,0,0.2,0,0.3,0c0.9,0,1.6-0.5,2-1.3c0,0.5,0.2,1,0.6,1.4
			c0.5,0.5,0.9,0.6,1.4,0.6c0.5,0,1-0.2,1.4-0.6s0.6-0.9,0.6-1.4C90.9,51.6,90.7,51.2,90.2,50.7z"/>
		<path class="st0" d="M78,70.5c0.6-0.8,0.5-2-0.3-2.7c-0.7-0.7-1.9-0.7-2.7-0.1c0.2-0.3,0.3-0.7,0.3-1.2s-0.2-1-0.6-1.4
			c-0.7-0.7-2.1-0.7-2.9,0c-0.5,0.5-0.6,0.9-0.6,1.4s0.2,1,0.6,1.4c0.5,0.5,0.9,0.6,1.4,0.6c0.5,0,0.9-0.2,1.3-0.5
			c-0.5,0.8-0.5,2,0.3,2.7c0.5,0.3,0.9,0.5,1.3,0.5s0.9-0.2,1.3-0.5c-0.2,0.3-0.3,0.7-0.3,1.2s0.2,1,0.6,1.4s0.9,0.6,1.4,0.6
			s1-0.2,1.4-0.6c0.5-0.5,0.6-0.9,0.6-1.4c0-0.5-0.2-1-0.6-1.4C80.1,69.9,78.8,69.9,78,70.5z"/>
	</g>
</g>
</svg>
