<?xml version="1.0" encoding="utf-8"?>
<!-- Generator: Adobe Illustrator 20.1.0, SVG Export Plug-In . SVG Version: 6.00 Build 0)  -->
<svg version="1.1" id="Layer_1" xmlns="http://www.w3.org/2000/svg" xmlns:xlink="http://www.w3.org/1999/xlink" x="0px" y="0px"
	 viewBox="0 0 100 100" enable-background="new 0 0 100 100" xml:space="preserve">
<path id="foriegn_languages" fill="#CCCCCB" d="M95.4,53.7c0-10.6-7.1-20.2-18.6-24.9c-0.7-0.3-1.5-0.1-2,0.4
	c-0.5,0.5-0.7,1.4-0.4,2c1.7,3.7,2.5,7.5,2.5,11.3c0,15.5-13.7,28.9-31.8,31.1c-0.8,0.1-1.5,0.7-1.6,1.5c-0.1,0.8,0.2,1.6,1,2
	c9.4,4.9,21.3,5.6,31.3,1.8l9.4,5.9c0.3,0.2,0.6,0.3,1,0.3c0.4,0,0.9-0.2,1.2-0.5c0.6-0.6,0.8-1.5,0.4-2.2l-3.9-7.8
	C91.2,69.4,95.4,61.8,95.4,53.7z M73.2,42.6c0-15.3-14.9-27.7-33.3-27.7S6.6,27.3,6.6,42.6c0,8.1,4.2,15.7,11.5,20.9l-3.9,7.8
	c-0.4,0.7-0.2,1.6,0.4,2.2c0.4,0.3,0.8,0.5,1.2,0.5c0.3,0,0.7-0.1,1-0.3l9.4-5.9c4.3,1.6,8.9,2.5,13.7,2.5
	C58.3,70.3,73.2,57.9,73.2,42.6z"/>
</svg>
