<?xml version="1.0" encoding="utf-8"?>
<!-- Generator: Adobe Illustrator 20.1.0, SVG Export Plug-In . SVG Version: 6.00 Build 0)  -->
<svg version="1.1" id="Layer_1" xmlns="http://www.w3.org/2000/svg" xmlns:xlink="http://www.w3.org/1999/xlink" x="0px" y="0px"
	 viewBox="0 0 100 100" enable-background="new 0 0 100 100" xml:space="preserve">
<path fill="#010101" d="M67.4,40.4c0.1,1.6,0.2,3,0.4,4.2c1.2-1.3,2.3-2.9,3-4.7C70.4,39.9,68.8,40.1,67.4,40.4z"/>
<path fill="#010101" d="M59.7,46.9c0,1.8,1.3,1.7,1.7,1.7c1,0,2-0.5,3.1-1.2c-0.3-1.6-0.6-3.6-0.7-5.7
	C61.4,42.9,59.7,44.8,59.7,46.9z"/>
<path fill="#010101" d="M94.3,43.4c1.3-11.8-9.1-22.8-23.2-24.4c-1.2-0.1-2.4-0.2-3.6-0.2c-12.6,0-23.2,7.8-24.4,18.6
	c-1.3,11.8,9.1,22.8,23.2,24.4c1.2,0.1,2.4,0.2,3.6,0.2c1.3,0,2.6-0.1,3.8-0.2c5.1,5.5,10.3,7,13.3,7c1.9,0,2.8-0.6,2.1-1.2
	c-4.3-3.4-5.2-6.8-5-9.4C89.7,54.9,93.6,49.6,94.3,43.4z M73.7,53.8l-1.5-3.1c3.7-0.9,6-2.7,6-5.5c0-1-0.3-3.4-3.7-4.5
	c-1.4,3.1-3.4,6-5.9,8.1c0.1,0.4,0.9,1.8,1.1,2.1l-3.2,2.1c-0.2-0.3-0.9-1.7-1.1-2.1c-1.6,0.9-3.3,1.4-5,1.4c-2.7,0-4.5-1.7-4.5-4.6
	c0-4.3,3.3-7.7,7.7-9.5c-0.1-1.3-0.1-2.7-0.1-4.1c-2.3,0.1-4.8,0.1-6.1,0.1l-0.2-3.6c1.4,0,4,0,6.3,0c0.1-1.3,0.1-2.9,0.2-4.2l4,0.3
	c-0.1,0.3-0.2,2.8-0.3,3.8c3.4-0.2,7.6-0.6,11.1-1.3l0.3,3.8c-3.4,0.6-7.9,0.9-11.6,1.1c0,1.1-0.1,2.1-0.1,3.2
	c1.3-0.3,3.2-0.5,4.7-0.4c0.1-0.5,0.2-0.9,0.2-1.4l3.8,1c-0.1,0.3-0.2,0.7-0.2,1c4.5,1.2,6.5,4.4,6.5,7.9
	C82.3,49.3,79.6,52.4,73.7,53.8z"/>
<path fill="#010101" d="M40.5,37c0.1-1.1,0.6-2.9,0.9-3.5c-2.5-0.7-5.8-1.3-8.6-1.3c-1.2,0-2.4,0.1-3.6,0.2C15,34.1,4.5,45,5.8,56.9
	c0.7,6.3,4.6,11.5,10.1,14.8c0.3,2.6-0.6,6-5,9.4c-0.7,0.5,0.2,1.2,2.2,1.2c3,0,8.3-1.5,13.4-7c1.3,0.2,2.5,0.2,3.9,0.2
	c1.2,0,2.4-0.1,3.6-0.2c9.4-1.1,17.2-5.9,21.4-13.8C45.8,56.8,39.4,47.8,40.5,37z M35.5,67.2l-1.9-7.1h-7.2l-1.8,7.1h-5.2l7.6-26.7
	h6.5l7.5,26.7H35.5z"/>
<path fill="#010101" d="M30,44.7h-0.1c-0.3,1.7-0.8,3.9-1.2,5.4l-1.6,6.1h5.7l-1.6-6.1C30.8,48.5,30.4,46.3,30,44.7z"/>
</svg>
