<?xml version="1.0" encoding="utf-8"?>
<!-- Generator: Adobe Illustrator 20.1.0, SVG Export Plug-In . SVG Version: 6.00 Build 0)  -->
<svg version="1.1" id="Layer_1" xmlns="http://www.w3.org/2000/svg" xmlns:xlink="http://www.w3.org/1999/xlink" x="0px" y="0px"
	 viewBox="0 0 100 100" enable-background="new 0 0 100 100" xml:space="preserve">
<path id="geology" fill="#CCCCCC" d="M92.6,70.7l-0.8-25.2c0-0.3-0.1-0.6-0.3-0.8l-21-29.9c0,0,0,0,0,0c-0.1-0.1-0.1-0.2-0.2-0.2
	c0,0,0,0-0.1,0c-0.1-0.1-0.1-0.1-0.2-0.1c0,0-0.1,0-0.1-0.1c-0.1,0-0.1,0-0.2-0.1c0,0-0.1,0-0.1,0c0,0,0,0,0,0l-24-3.5
	c-0.2,0-0.3,0-0.5,0c-0.1,0-0.1,0-0.2,0.1c-0.1,0-0.2,0.1-0.3,0.1c0,0,0,0,0,0L37,15.3c-0.3,0.2-0.6,0.5-0.7,0.9l-5,17.4L19,31.1
	c0,0,0,0-0.1,0c0,0-0.1,0-0.1,0c-0.1,0-0.1,0-0.2,0c0,0-0.1,0-0.1,0c0,0-0.1,0-0.1,0c0,0-0.1,0-0.1,0c0,0-0.1,0-0.1,0
	c0,0-0.1,0-0.1,0.1c0,0-0.1,0-0.1,0.1c0,0-0.1,0.1-0.1,0.1c0,0-0.1,0.1-0.1,0.1c0,0-0.1,0.1-0.1,0.1c0,0-0.1,0.1-0.1,0.1
	c0,0,0,0,0,0.1L9.8,43.4c-0.1,0.2-0.2,0.4-0.2,0.6l-1.2,8.8c0,0,0,0,0,0.1c0,0.1,0,0.2,0,0.2c0,0,0,0.1,0,0.1c0,0.1,0,0.2,0.1,0.2
	c0,0,0,0.1,0,0.1c0,0.1,0.1,0.2,0.2,0.3c0,0,0,0,0,0c0,0,0,0,0,0L36.9,91c0.3,0.4,0.7,0.6,1.2,0.6c0.1,0,0.1,0,0.2,0l8.9-1.1
	c0.4-0.1,0.8-0.3,1-0.6l4.4-6.6l11.2,7c0.2,0.1,0.5,0.2,0.8,0.2c0,0,0.1,0,0.1,0l9.1-0.6c0.1,0,0.2,0,0.3-0.1c0,0,0.1,0,0.1,0l0,0
	c0.1,0,0.3-0.1,0.4-0.2c0,0,0,0,0.1-0.1c0.1-0.1,0.2-0.1,0.2-0.2c0,0,0.1-0.1,0.1-0.1c0-0.1,0.1-0.1,0.1-0.2c0,0,0,0,0,0
	c0-0.1,0-0.1,0-0.2c0-0.1,0-0.2,0.1-0.3c0,0,0,0,0-0.1L75.9,69c0-0.3-0.1-0.7-0.3-0.9L51.8,34.5c0,0,0,0,0,0c0,0-0.1-0.1-0.1-0.1
	c-0.1-0.1-0.1-0.1-0.2-0.2c0,0-0.1-0.1-0.1-0.1c-0.1,0-0.1-0.1-0.2-0.1c0,0-0.1,0-0.1,0c-0.1,0-0.2,0-0.2-0.1c0,0-0.1,0-0.1,0
	l-6.1-0.5l2.7-2.1l5.1,0.6l24,33.9c0.2,0.2,0.4,0.4,0.6,0.5l13.3,6.1c0.2,0.1,0.4,0.1,0.6,0.1c0,0,0,0,0,0c0.8,0,1.5-0.7,1.5-1.5
	C92.6,70.9,92.6,70.8,92.6,70.7z M39,17.5l5.9-3.5l0.6,0.7l2.3,2.5L45.7,29l-5.7,4.5l-4.1,2.4l-1.8-1.2h0l0,0L39,17.5z M26.3,46.1
	l1.6-8.1l5.1-0.5l0.8,0.5l-6.6,9.2L26.3,46.1z M19.2,34.4l5.8,3l-1.5,8l-5.8,2.5l-6.1,2.6l0.8-5.8L19.2,34.4z M46.1,87.6l-7.4,0.9
	l-26.5-35l11.6-5l0.6-0.3l1.7,2.3c0,0,0,0,0,0c0,0,0,0,0,0l24.2,30.8L46.1,87.6z M64.8,87.5l-11.8-7.4L30,50.7l10.5-1.4l30.1,37.7
	L64.8,87.5z M40.4,46.4l-10,1.3l6.5-9l4.3-2.5l6.7,0.5L40.4,46.4z"/>
</svg>
