<?xml version="1.0" encoding="utf-8"?>
<!-- Generator: Adobe Illustrator 20.1.0, SVG Export Plug-In . SVG Version: 6.00 Build 0)  -->
<svg version="1.1" xmlns="http://www.w3.org/2000/svg" xmlns:xlink="http://www.w3.org/1999/xlink" x="0px" y="0px" viewBox="0 0 100 100" >
	<symbol id="accounting" viewBox="0 0 100 100">
		<path d="M76.4,7.8h-53c-1.4,0-2.5,1.1-2.5,2.5v79.3c0,1.4,1.1,2.5,2.5,2.5h53c1.4,0,2.5-1.1,2.5-2.5
		V10.3C78.9,8.9,77.8,7.8,76.4,7.8z M52.5,11.8c8.6,0,15.6,7,15.6,15.6H52.5V11.8z M49.9,14.4V30h15.6c0,8.6-7,15.6-15.6,15.6
		s-15.6-7-15.6-15.6S41.3,14.4,49.9,14.4L49.9,14.4z M35.1,83.7v3.7h-2.7v-3.5c-3.8-0.4-6-2.1-7.8-5.4l3.3-3.1c1,2,2.7,3.9,5.2,3.9
		c1.9,0,3.5-1.5,3.6-3.5c0-0.1,0-0.1,0-0.2c0-2.5-2.6-3.4-5.2-4.6c-2.6-1.2-5.2-2.9-5.2-7.1c0-4.1,2.3-7.1,6.3-7.8v-3.4h2.7v3.4
		c2.3,0.2,4.4,1.3,5.8,3.1l-2.5,3.5c-0.9-1.3-2.4-2.2-4.1-2.2c-1.6,0-3,1.3-3.1,2.9c0,2.2,2.6,3,5.2,4.3c2.6,1.3,5.2,3.1,5.2,7.4
		C41.8,79.3,39.3,82.9,35.1,83.7z M73.9,87.5H48.1c-1,0-1.8-0.8-1.8-1.8c0-1,0.8-1.8,1.8-1.8h25.8c1,0,1.8,0.8,1.8,1.8
		C75.7,86.7,74.9,87.5,73.9,87.5L73.9,87.5z M73.9,79.6H48.1c-1,0-1.8-0.8-1.8-1.8c0-1,0.8-1.8,1.8-1.8h25.8c1,0,1.8,0.8,1.8,1.8
		C75.7,78.8,74.9,79.6,73.9,79.6L73.9,79.6z M73.9,71.7H48.1c-1,0-1.8-0.8-1.8-1.8c0-1,0.8-1.8,1.8-1.8h25.8c1,0,1.8,0.8,1.8,1.8
		C75.7,70.9,74.9,71.7,73.9,71.7L73.9,71.7z M73.9,63.8H48.1c-1,0-1.8-0.8-1.8-1.8c0-1,0.8-1.8,1.8-1.8h25.8c1,0,1.8,0.8,1.8,1.8
		C75.7,63,74.9,63.8,73.9,63.8L73.9,63.8z M73.9,55.9H48.1c-1,0-1.8-0.8-1.8-1.8c0-1,0.8-1.8,1.8-1.8h25.8c1,0,1.8,0.8,1.8,1.8
		S74.9,55.9,73.9,55.9L73.9,55.9z"/>
	</symbol>
	<symbol id="anatomy" viewBox="0 0 100 100">
		<path d="M85.1,27.8L85.1,27.8c-8.9-8.9-23.5-8.9-32.4,0l-1.1,1.1c-0.7,0.7-1.7,0.7-2.4,0l-1.1-1.1
		c-8.9-8.9-23.5-8.9-32.4,0l0,0c-8.9,8.9-8.9,23.5,0,32.4l33.5,33.6c0.7,0.7,1.7,0.7,2.4,0l33.5-33.6C94,51.4,94,36.8,85.1,27.8z
		 M84.6,54.2H69.4c-1,0-1.8-0.6-2.1-1.6L63,39L53.3,66c-0.3,0.9-1.1,1.5-2,1.5l-0.1,0c-0.9,0-1.7-0.5-2.1-1.4l-9.9-23.9l-4.8,10.6
		c-0.4,0.8-1.2,1.3-2,1.3H16.3C15,54,14,53,14,51.8c0-1.2,1-2.2,2.2-2.2H31l6.3-14c0.4-0.8,1.2-1.3,2.1-1.3c0.9,0,1.7,0.6,2,1.4
		L51,59l10-27.7c0.3-0.9,1.2-1.5,2.1-1.5c1,0,1.8,0.6,2.1,1.6L71,49.8h13.6c1.2,0,2.2,1,2.2,2.2C86.9,53.2,85.9,54.2,84.6,54.2z"/>
	</symbol>
	<symbol id="biology" viewBox="0 0 100 100">
		<path  d="M65.6,40.3c-1.7,0-3.2,1.4-3.2,3.2v5v1.3c0,2.8-1,5.4-2.5,7.5c-0.2,0.3-0.5,0.6-0.8,0.9
			c-0.3,0.3-0.6,0.6-0.9,0.9c-0.3,0.3-0.6,0.5-0.9,0.8c-2.1,1.6-4.7,2.5-7.5,2.5h-1.3h-5H21.4c-4.1,0-8.1,1.3-11.4,3.8
			c-1.4,1-1.7,3-0.6,4.4c0.6,0.8,1.6,1.3,2.5,1.3c1,0,2-0.5,2.7-1.5c0.3-0.1,0.4-0.1,0.7-0.1l14,14c-0.1,0.3-0.1,0.4-0.1,0.7
			c-2,1.3-1.9,4-0.2,5.2c0.6,0.4,1.2,0.6,1.9,0.6c1,0,1.9-0.4,2.5-1.3c2.5-3.3,3.8-7.2,3.8-11.4v-3.2c0-1.7-1.4-3.2-3.2-3.2
			c-1.7,0-3.2,1.4-3.2,3.2V77l-8.2-8.2h27.1c5.2,0,10-2.1,13.4-5.6s5.6-8.2,5.6-13.4v-6.3C68.8,41.8,67.3,40.3,65.6,40.3z"/>
		<path d="M90.3,29c-1-1.4-3-1.7-4.4-0.6c-0.5,0.4-1.1,0.8-1.7,1.1L70.3,15.4c0.1-0.3,0.1-0.4,0.1-0.7
			c2-1.3,1.9-4,0.2-5.2c-1.4-1-3.4-0.8-4.4,0.6c-2.5,3.3-3.8,7.2-3.8,11.4v3.2c0,1.7,1.4,3.2,3.2,3.2c1.7,0,3.2-1.4,3.2-3.2v-1.8
			l7.9,8.1H49.8c-5.2,0-10,2.1-13.4,5.6c-3.4,3.4-5.6,8.2-5.6,13.4v6.3c0,1.7,1.4,3.2,3.2,3.2c1.7,0,3.2-1.4,3.2-3.2v-5l6.3,6.3
			c1.2,1.2,2.8,1.9,4.5,1.9h1.9c1.3,0,2.6-0.3,3.7-0.8L38.8,43.8c0.6-1.1,1.3-2.1,2.1-2.9c0.9-0.8,1.8-1.5,2.9-2.1l14.8,14.8
			c0.5-1.1,0.8-2.4,0.8-3.7V48c0-1.7-0.7-3.3-1.9-4.5l-6.3-6.3h27.1c4.1,0,8.1-1.3,11.4-3.8C91,32.4,91.3,30.4,90.3,29z"/>
	</symbol>
	<symbol id="business" viewBox="0 0 100 100">
		<path d="M40.4,22.4c0-2.9,2.3-5.2,5.2-5.2H58c2.9,0,5.2,2.3,5.2,5.2v5.8h5.5v-5.8c0-5.9-4.8-10.7-10.7-10.7H45.6
			c-5.9,0-10.7,4.8-10.7,10.7v5.8h5.5V22.4z"/>
		<path d="M90.1,47.7l-29.6,10v4.8c0,2.1-1.7,3.8-3.8,3.8h-9.8c-2.1,0-3.8-1.7-3.8-3.8v-4.8l-29.6-10v37.4h76.7L90.1,47.7L90.1,47.7z
			"/>
		<path d="M43.1,52.6c0-2.1,1.7-3.8,3.8-3.8h9.8c2.1,0,3.8,1.7,3.8,3.8v1.1l29.6-10V32.2H13.5v11.6l29.6,10V52.6z"/>
		<path d="M46.9,52.5C46.8,52.5,46.8,52.6,46.9,52.5l-0.1,9.9c0,0.1,0.1,0.1,0.1,0.1h9.8c0.1,0,0.1-0.1,0.1-0.1v-9.8
			c0-0.1-0.1-0.1-0.1-0.1S46.9,52.5,46.9,52.5z"/>
	</symbol>
	<symbol id="chemistry" viewBox="0 0 100 100" >
		<path d="M86,82.5L62.1,49.6v-32c0-5.7-4.2-6.1-5.4-6.2H43.8c-4.5,0-5.4,2.5-5.5,4v2.2v32L14.1,82.9
		l0,0l-1.8,2.4c-1.2,2.2-1.5,5.3,5.4,5.3h65.5C92,90.5,86,82.5,86,82.5z M44.4,18.6v-1h11.5v1V30H44.4V18.6z M50.2,55.9
		c0-0.7,0.5-1.2,1.2-1.2h6.3l1.8,2.4h-8.1C50.7,57.1,50.2,56.5,50.2,55.9z M57,65.9c0-0.7,0.6-1.2,1.2-1.2h6.7l1.8,2.4h-8.5
		C57.6,67.1,57,66.6,57,65.9z M65.2,75.9c0-0.7,0.5-1.2,1.2-1.2h5.8l1.8,2.5h-7.5C65.7,77.1,65.2,76.6,65.2,75.9z M79.1,84.3l0.1,0.1
		l0,0l-0.5-0.1H79.1z"/>
	</symbol>
	<symbol id="communication" viewBox="0 0 100 100" >
		<path d="M95.4,53.7c0-10.6-7.1-20.2-18.6-24.9c-0.7-0.3-1.5-0.1-2,0.4
		c-0.5,0.5-0.7,1.4-0.4,2c1.7,3.7,2.5,7.5,2.5,11.3c0,15.5-13.7,28.9-31.8,31.1c-0.8,0.1-1.5,0.7-1.6,1.5c-0.1,0.8,0.2,1.6,1,2
		c9.4,4.9,21.3,5.6,31.3,1.8l9.4,5.9c0.3,0.2,0.6,0.3,1,0.3c0.4,0,0.9-0.2,1.2-0.5c0.6-0.6,0.8-1.5,0.4-2.2l-3.9-7.8
		C91.2,69.4,95.4,61.8,95.4,53.7z M73.2,42.6c0-15.3-14.9-27.7-33.3-27.7S6.6,27.3,6.6,42.6c0,8.1,4.2,15.7,11.5,20.9l-3.9,7.8
		c-0.4,0.7-0.2,1.6,0.4,2.2c0.4,0.3,0.8,0.5,1.2,0.5c0.3,0,0.7-0.1,1-0.3l9.4-5.9c4.3,1.6,8.9,2.5,13.7,2.5
		C58.3,70.3,73.2,57.9,73.2,42.6z"/>
	</symbol>
	<symbol id="economics" viewBox="0 0 100 100" >
		<path d="M93.7,50C93.7,39.1,89.1,28.8,81,21.1c-8.1-7.7-19-12-30.5-12.1H50C26.2,9.2,6.8,27.6,6.8,50.2c0,0,0,0,0,0
			c0,0,0,0,0,0c0,0.1,0,0.1,0,0.2c0.1,11,4.6,21.2,12.8,29c8.2,7.7,19.1,12,30.6,12h0h0l0.2,0c23.9-0.1,43.2-18.5,43.2-41.1
			c0,0,0,0,0-0.1c0,0,0,0,0,0C93.7,50.1,93.7,50,93.7,50z M79.5,25.5c-3,1.9-6.1,3.4-9.4,4.7c-2.1-4.8-5.1-9.3-8.7-13.4
			c-0.9-1-1.8-1.9-2.7-2.8C66.8,15.6,74.1,19.8,79.5,25.5z M41.8,13.9c-4.9,4.7-8.8,10.2-11.4,16.2c-3.3-1.2-6.4-2.8-9.4-4.7
			C26.4,19.8,33.6,15.6,41.8,13.9z M18.3,28.6c3.4,2.1,6.9,3.9,10.6,5.3c-1.4,3.9-2.2,7.9-2.6,12.1c-0.1,0.7-0.1,1.5-0.1,2.2H11.1
			C11.5,40.9,14.1,34.2,18.3,28.6z M18.4,71.8c-4.2-5.6-6.9-12.3-7.3-19.6h15.1c0.2,4.9,1.1,9.7,2.6,14.3
			C25.2,67.9,21.7,69.7,18.4,71.8z M21,74.9c3-1.8,6.1-3.4,9.3-4.6c2.2,4.9,5.1,9.6,8.9,13.8c0.7,0.8,1.4,1.5,2.2,2.3
			C33.4,84.6,26.3,80.5,21,74.9z M52.4,87V76.7h-4.2V87c-2.1-1.7-4-3.5-5.7-5.5c-3.5-3.9-6.1-8.1-8.1-12.6c0.4-0.1,0.7-0.2,1.1-0.3
			c-0.1,0-0.1-0.1-0.2-0.1l-2.6-1.4l0.6-2.1c-0.1,0-0.2,0.1-0.3,0.1c-1.4-4.2-2.2-8.6-2.4-12.9h7.9c-1.4-1.1-2.6-2.4-3.5-4h-4.4
			c0.2-4.4,1.1-8.7,2.5-12.9c0.8,0.2,1.6,0.5,2.5,0.7c0.8-1.3,1.8-2.4,3.1-3.4c-1.4-0.3-2.7-0.6-4.1-1c3-6.6,7.5-12.7,13.7-17.7v9.8
			h4.2v-9.8c2.1,1.7,4,3.5,5.7,5.5c3.4,3.8,6,7.9,7.9,12.2c-0.2,0.1-0.4,0.1-0.5,0.2l0.9,0.4l-0.8,3l-0.2,0.8
			c0.7-0.2,1.5-0.4,2.2-0.6c1.5,4.2,2.3,8.5,2.5,12.9h-6c1,1.1,1.9,2.4,2.5,4h3.6c-0.2,4.4-1,8.7-2.4,12.9c-0.9-0.3-1.8-0.5-2.7-0.7
			c-0.9,1.3-2,2.4-3.4,3.4c1.5,0.3,3.1,0.7,4.6,1.1C63.2,75.7,58.6,81.9,52.4,87z M59.2,86.4c4.7-4.7,8.5-10.1,11-16.1
			c3.2,1.2,6.3,2.8,9.3,4.6C74.2,80.5,67.2,84.6,59.2,86.4z M82.2,71.8c-3.3-2.1-6.8-3.9-10.5-5.3c1.3-3.8,2.1-7.7,2.5-11.7
			c0.1-0.9,0.1-1.7,0.2-2.6h15.1C89,59.5,86.4,66.2,82.2,71.8z M74.3,48.2c-0.2-4.9-1.1-9.7-2.8-14.3c3.7-1.4,7.2-3.2,10.6-5.3
			c4.2,5.6,6.9,12.3,7.3,19.6H74.3z"/>
		<path d="M53.6,46.5c-5.1-1.7-7.2-3-7.2-4.8c0-1.6,1.2-3.2,5.1-3.2c4.3,0,7,1.3,8.5,2l1.8-6.3
			c-2.1-0.9-4.7-1.7-8.6-1.8v-4.9h-5.8v5.3c-6.3,1.1-10,5-10,10c0,5.4,4.3,8.2,10.7,10.3c4.4,1.4,6.3,2.7,6.3,4.9
			c0,2.2-2.3,3.5-5.7,3.5c-3.8,0-7.3-1.2-9.8-2.5l-1.8,6.6c2.2,1.2,6.1,2.2,10.1,2.4v5.3H53v-5.8C59.8,66.2,63.4,62,63.4,57
			C63.4,51.9,60.7,48.8,53.6,46.5z"/>
	</symbol>
	<symbol id="engineering" viewBox="0 0 100 100">
		<path d="M7.9,37.5l1-6.2c0.2-1.2,1.3-2.1,2.5-2l5.1,0.4c0.6-1.4,1.3-2.8,2.1-4.1l-3.2-3.8c-0.8-0.9-0.7-2.3,0.1-3.2l4.4-4.4
			c0.9-0.9,2.2-0.9,3.2-0.1l3.9,3.3c1.3-0.8,2.7-1.5,4.1-2.1L30.5,10c-0.1-1.2,0.8-2.3,2-2.5l6.2-1c1.2-0.2,2.3,0.6,2.6,1.7l1.2,4.9
			c1.5,0.1,3,0.3,4.5,0.7l2.7-4.3c0.6-1.1,2-1.4,3.1-0.9l5.6,2.9c1.1,0.5,1.6,1.9,1.1,3l-1.9,4.7c0.6,0.5,1.2,1,1.7,1.5
			c0.5,0.5,1,1.1,1.5,1.7l4.7-1.9c1.1-0.5,2.4,0,3,1.1l2.8,5.6c0.6,1.1,0.2,2.4-0.9,3.1l-4.2,2.7h-2.4c-3.7,0-6.9,2.9-7.2,6.6
			l-0.1,0.6l-0.9,0.4l-0.5-0.4c-1.3-1.1-2.9-1.7-4.6-1.7h-0.2c-0.5-5.3-5.2-9.3-10.5-8.8c-5.3,0.5-9.3,5.2-8.8,10.5
			c0.4,4.7,4.1,8.4,8.8,8.8c-0.1,1.8,0.5,3.5,1.7,4.8l0.4,0.5c-0.1,0.3-0.3,0.6-0.4,0.9L41,55.5c-3.7,0.3-6.6,3.4-6.6,7.2v2.4
			l-2.7,4.3c-0.6,1.1-2,1.4-3.1,0.9l-5.6-2.8c-1.1-0.5-1.6-1.9-1.1-3l1.9-4.7c-0.6-0.5-1.2-1-1.7-1.5s-1-1.1-1.5-1.7L16,58.4
			c-1.2,0.5-2.5,0-3-1.2l-2.8-5.6c-0.6-1.1-0.2-2.4,0.9-3.1l4.3-2.7c-0.4-1.5-0.6-3-0.7-4.5l-4.9-1.2C8.5,39.8,7.7,38.7,7.9,37.5z
			 M91.4,60.5c1.1,0.1,2,1,2,2.1v5.1c0,1.1-0.8,2-1.9,2.1l-4,0.3c-0.5,2.2-1.4,4.4-2.6,6.4l2.6,3.1c0.7,0.8,0.6,2.1-0.2,2.9L83.6,86
			c-0.2,0.2-0.4,0.4-0.7,0.5c-0.3,0.1-0.5,0.2-0.8,0.2c-0.5,0-1-0.2-1.4-0.5l-3.1-2.6c-2,1.2-4.1,2.1-6.3,2.6l-0.3,4
			c-0.1,1.1-1,2-2.2,2h-5.1c-1.1,0-2-0.8-2.1-1.9l-0.3-4c-2.2-0.5-4.4-1.4-6.3-2.6L52,86.2c-0.8,0.7-2.1,0.6-2.9-0.2l-3.6-3.6
			c-0.8-0.8-0.8-2-0.1-2.8l2.5-3c-1.2-2-2.1-4.1-2.6-6.4l-4-0.3c-1.1-0.1-1.9-1-1.9-2.1v-5.1c0-1.1,0.8-2,1.9-2.1l4-0.3
			c0.5-2.2,1.4-4.4,2.6-6.4l-2.6-3.1c-0.7-0.8-0.7-2.1,0.1-2.8l3.6-3.6c0.8-0.8,2-0.8,2.8-0.1l3.1,2.5c2-1.2,4.1-2.1,6.3-2.6l0.3-4
			c0.1-1.1,1-1.9,2.1-1.9H69c1.1,0,2,0.8,2.1,1.9l0.3,4c2.2,0.5,4.4,1.4,6.3,2.6l3.1-2.6c0.8-0.7,2.1-0.7,2.8,0.1l3.6,3.6
			c0.8,0.8,0.8,2,0.1,2.8l-2.6,3.1c1.2,2,2.1,4.1,2.6,6.4L91.4,60.5z M76.9,65.2c0-5.8-4.7-10.5-10.5-10.5c-5.8,0-10.5,4.7-10.5,10.5
			c0,5.8,4.7,10.5,10.5,10.5c2.8,0,5.4-1.1,7.4-3.1C75.8,70.6,76.9,68,76.9,65.2z M66.4,59.8c-3,0-5.4,2.4-5.4,5.4s2.4,5.4,5.4,5.4
			s5.4-2.4,5.4-5.4C71.8,62.3,69.4,59.9,66.4,59.8C66.4,59.8,66.4,59.8,66.4,59.8z"/>
	</symbol>
	<symbol id="finance" viewBox="0 0 100 100">
		<path class="st0" 	d="M50.5,87.4c-4.5,0-8.2-1-11.2-3.1c-0.7-0.5-0.8-1.4-0.3-2.1c0.5-0.7,1.4-0.8,2.1-0.3c2.4,1.7,5.5,2.6,9.3,2.6
			s6.9-0.8,9.2-2.6c0.7-0.5,1.6-0.3,2.1,0.3c0.5,0.7,0.3,1.6-0.3,2.1C58.7,86.5,54.9,87.4,50.5,87.4z"/>
		<path class="st0" d="M61.9,87.6c-0.5-0.7-1.4-0.8-2.1-0.3c-2.8,2-6.3,2.2-9.2,2.2c-4.3,0-7.1-0.7-9.3-2.3c-0.7-0.5-1.6-0.3-2.1,0.3
			c-0.5,0.7-0.3,1.6,0.3,2.1c1.6,1.2,3.3,1.9,5,2.2c0.3,3,3,5.6,6.2,5.6c3.1,0,5.8-2.4,6.2-5.6c1.7-0.5,3.4-1.2,4.9-2.2
			C62.3,89.3,62.5,88.2,61.9,87.6z M50.5,94.4c-1.3,0-2.3-0.8-2.9-2c0.9,0.1,2,0.1,2.9,0.1c0.9,0,1.9,0,2.9-0.1
			C53,93.6,51.8,94.4,50.5,94.4z"/>
		<path class="st0" d="M50.5,20.9c-14.2,0-24.3,10.5-24.3,24.9c0,8.4,3.8,13.9,7.1,18.5C35.8,68.1,38,71.2,38,75c0,5,8.3,7.2,12.5,7.2
			S63,80.2,63,75c0-3.8,2.2-7.1,4.8-10.7c3.3-4.8,7.1-10.1,7.1-18.5C74.7,31.5,64.6,20.9,50.5,20.9z M38.3,35.8
			c-0.3,0.5-0.7,0.6-1.3,0.6c-0.3,0-0.7-0.1-0.9-0.3c-0.6-0.5-0.8-1.5-0.2-2.1c3.3-4.1,7-6.4,11.6-7.3c0.8-0.1,1.6,0.5,1.7,1.3
			c0.1,0.8-0.5,1.6-1.3,1.7C44,30.6,41.1,32.3,38.3,35.8z M52,69.2V73c0,0.8-0.7,1.5-1.5,1.5c-0.8,0-1.5-0.7-1.5-1.5v-3.7
			c-3.1-0.5-5.5-2.1-6.4-3.5c-0.5-0.7-0.3-1.6,0.5-2.1c0.7-0.5,1.6-0.3,2.1,0.5c0.5,0.6,1.7,1.7,3.8,2.1v-9.5
			c-3.1-1.4-6.6-3.4-6.6-7.7c0-3.6,2.9-6.4,6.6-7.1v-3.7c0-0.8,0.7-1.5,1.5-1.5c0.8,0,1.5,0.7,1.5,1.5v3.7c3.1,0.5,5.4,2.1,6.4,3.4
			c0.5,0.7,0.3,1.6-0.5,2.1c-0.7,0.5-1.6,0.3-2.1-0.5c-0.5-0.6-1.7-1.6-3.8-2.1v9.7c3.1,1.4,6.6,3.3,6.6,7.6
			C58.7,65.7,55.8,68.5,52,69.2z"/>
		<path class="st0" d="M45.4,48.7c0,2.1,1.3,3.1,3.6,4.3v-8.2C46.7,45.4,45.4,47.1,45.4,48.7z"/>
		<path class="st0" d="M52,57.9v8.2c2.2-0.5,3.6-2.2,3.6-3.8C55.6,60.1,54.2,59,52,57.9z"/>
		<path class="st0" d="M52.5,7.3c0-0.5-0.2-1-0.6-1.4c-0.7-0.8-2.1-0.8-2.9,0c-0.5,0.5-0.6,0.9-0.6,1.4c0,0.5,0.2,1,0.6,1.4
			c0.3,0.3,0.7,0.5,1.2,0.6c-1,0.1-1.7,1-1.7,2.1s0.8,2,1.9,2.1c-0.5,0-0.9,0.2-1.3,0.5c-0.5,0.5-0.6,0.9-0.6,1.4c0,0.5,0.2,1,0.6,1.4
			c0.5,0.5,0.9,0.6,1.4,0.6c0.5,0,1-0.2,1.4-0.6c0.5-0.5,0.6-0.9,0.6-1.4c0-0.5-0.2-1.2-0.6-1.4c-0.3-0.3-0.8-0.5-1.3-0.5
			c1-0.1,1.9-0.9,1.9-2.1c0-1-0.7-1.9-1.7-2.1c0.5-0.1,0.8-0.3,1.2-0.6C52.3,8.3,52.5,7.7,52.5,7.3z"/>
		<path class="st0" d="M32.8,18.5c0.7-0.6,0.9-1.7,0.5-2.7c-0.6-0.8-1.6-1.2-2.6-0.7c0,0,0.1,0,0.1-0.1c0.5-0.5,0.6-0.9,0.6-1.4
			c0-0.5-0.2-1-0.6-1.4c-0.8-0.7-2.1-0.7-2.9,0c-0.5,0.5-0.6,0.9-0.6,1.4c0,0.5,0.2,1,0.6,1.4c0.5,0.5,0.9,0.6,1.4,0.6
			c0.3,0,0.6-0.1,0.8-0.2c-0.7,0.6-0.9,1.7-0.3,2.7c0.5,0.6,1,0.9,1.7,0.9c0.3,0,0.6-0.1,0.9-0.2v0.1c-0.5,0.5-0.6,0.9-0.6,1.4
			c0,0.5,0.2,1,0.6,1.4c0.5,0.5,0.9,0.6,1.4,0.6s1-0.2,1.4-0.6c0.5-0.5,0.6-0.9,0.6-1.4c0-0.5-0.2-1-0.6-1.4
			C34.4,18.2,33.5,18.1,32.8,18.5z"/>
		<path class="st0" d="M15,32.3c0.5,0,1-0.2,1.4-0.6c0.1-0.1,0.2-0.2,0.3-0.3c-0.2,0.9,0.2,2,1.2,2.3c0.3,0.1,0.5,0.2,0.8,0.2
			c0.7,0,1.3-0.5,1.7-1c-0.1,0.2-0.1,0.5-0.1,0.6c0,0.5,0.2,1.2,0.6,1.4c0.5,0.5,0.9,0.6,1.4,0.6c0.5,0,1-0.2,1.4-0.6
			c0.5-0.5,0.6-0.9,0.6-1.4s-0.2-1-0.6-1.4c-0.8-0.8-2.1-0.8-2.9,0c0,0.2-0.1,0.2-0.2,0.3c0.2-0.9-0.2-2-1.2-2.3
			c-0.9-0.3-2.1-0.1-2.6,0.7c0-0.2,0.1-0.3,0.1-0.5c0-0.5-0.2-1-0.6-1.4c-0.7-0.8-2.1-0.8-2.9,0c-0.5,0.5-0.6,0.9-0.6,1.4
			s0.2,1,0.6,1.4C13.8,32.2,14.4,32.3,15,32.3z"/>
		<path class="st0" d="M21.5,52.3c0.5-0.5,0.6-0.9,0.6-1.4s-0.2-1-0.6-1.4c-0.8-0.7-2.1-0.7-2.9,0C18.1,50,18,50.5,18,50.9
			c-0.3-0.9-1.3-1.5-2.2-1.3c-1,0.2-1.7,1-1.7,2.1c-0.1-0.3-0.3-0.6-0.5-0.8c-0.8-0.8-2.1-0.8-2.9,0c-0.5,0.5-0.6,0.9-0.6,1.4
			s0.2,1,0.6,1.4c0.5,0.5,0.9,0.6,1.4,0.6c0.5,0,1-0.2,1.4-0.6c0.5-0.5,0.6-0.8,0.6-1.4c0.3,0.8,1,1.3,2,1.3c0.1,0,0.2,0,0.3,0
			c1-0.2,1.7-1,1.7-2.1c0.1,0.3,0.3,0.6,0.5,0.8c0.5,0.5,0.9,0.6,1.4,0.6S21.2,52.8,21.5,52.3z"/>
		<path class="st0" d="M26.2,65.3c-0.5,0.5-0.6,0.9-0.6,1.4c0,0.5,0.1,0.8,0.3,1.2c-0.9-0.6-2-0.6-2.8,0.1c-0.8,0.7-0.9,1.9-0.3,2.7
			C22,70,20.7,70,20,70.7c-0.5,0.5-0.6,0.9-0.6,1.4s0.2,1,0.6,1.4c0.5,0.5,0.9,0.6,1.4,0.6s1-0.2,1.4-0.6c0.5-0.5,0.6-0.9,0.6-1.4
			c0-0.5-0.1-0.8-0.3-1.2c0.5,0.3,0.8,0.5,1.3,0.5c0.5,0,0.9-0.2,1.3-0.5c0.7-0.7,0.9-1.9,0.3-2.7c0.5,0.3,0.8,0.5,1.3,0.5
			s1-0.2,1.4-0.6c0.5-0.5,0.6-0.9,0.6-1.4c0-0.5-0.2-1-0.6-1.4C28.3,64.6,26.9,64.6,26.2,65.3z"/>
		<path class="st0" d="M70.8,15.3c0.3,0.1,0.5,0.2,0.8,0.2c0.5,0,1-0.2,1.4-0.6s0.6-0.9,0.6-1.4c0-0.5-0.2-1-0.6-1.4
			c-0.7-0.8-2.1-0.8-2.9,0c-0.5,0.5-0.6,0.9-0.6,1.4c0,0.5,0.2,1,0.6,1.4c0,0,0.1,0,0.1,0.1c-0.9-0.5-2-0.1-2.6,0.7
			c-0.6,0.8-0.5,2.1,0.5,2.7c-0.7-0.3-1.7-0.2-2.3,0.5c-0.5,0.5-0.6,0.9-0.6,1.4c0,0.5,0.2,1,0.6,1.4c0.5,0.5,0.9,0.6,1.4,0.6
			c0.5,0,1-0.2,1.4-0.6c0.5-0.5,0.6-0.9,0.6-1.4c0-0.5-0.2-1-0.6-1.4l0-0.2c0.3,0.1,0.6,0.2,0.9,0.2c0.7,0,1.3-0.3,1.7-0.9
			C71.7,17.1,71.5,16,70.8,15.3z"/>
		<path class="st0" d="M78.6,35.6c0.5,0,1-0.2,1.4-0.6c0.5-0.5,0.6-0.9,0.6-1.4c0-0.2,0-0.5-0.1-0.6c0.5,0.6,1,1,1.7,1
			c0.3,0,0.5,0,0.8-0.2c0.9-0.5,1.4-1.4,1.2-2.3c0.1,0.1,0.2,0.2,0.2,0.3c0.5,0.5,0.9,0.6,1.4,0.6s1-0.2,1.4-0.6
			c0.5-0.5,0.6-0.9,0.6-1.4s-0.2-1-0.6-1.4c-0.8-0.7-2.1-0.7-2.9,0c-0.5,0.5-0.6,0.9-0.6,1.4c0,0.2,0,0.5,0.1,0.5
			c-0.5-0.8-1.6-1.3-2.6-0.8c-0.9,0.5-1.4,1.4-1.2,2.3c-0.1-0.1-0.2-0.2-0.2-0.3c-0.8-0.8-2.1-0.8-2.9,0c-0.5,0.5-0.6,0.9-0.6,1.4
			s0.2,1,0.6,1.4C77.5,35.3,78,35.6,78.6,35.6z"/>
		<path class="st0" d="M90.2,50.7c-0.7-0.8-2.1-0.8-2.9,0c-0.2,0.2-0.5,0.5-0.5,0.8c0-1-0.7-1.9-1.7-2.1c-1-0.2-2,0.5-2.2,1.4
			c0-0.5-0.2-1-0.6-1.4c-0.8-0.7-2.1-0.7-2.9,0c-0.5,0.5-0.6,0.9-0.6,1.4s0.2,1,0.6,1.4c0.5,0.5,0.9,0.6,1.4,0.6c0.5,0,1-0.2,1.4-0.6
			c0.2-0.2,0.5-0.5,0.5-0.8c0,1,0.7,1.9,1.7,2.1c0.1,0,0.2,0,0.3,0c0.9,0,1.6-0.5,2-1.3c0,0.5,0.2,1,0.6,1.4c0.5,0.5,0.9,0.6,1.4,0.6
			c0.5,0,1-0.2,1.4-0.6s0.6-0.9,0.6-1.4C90.9,51.6,90.7,51.2,90.2,50.7z"/>
		<path class="st0" d="M78,70.5c0.6-0.8,0.5-2-0.3-2.7c-0.7-0.7-1.9-0.7-2.7-0.1c0.2-0.3,0.3-0.7,0.3-1.2s-0.2-1-0.6-1.4
			c-0.7-0.7-2.1-0.7-2.9,0c-0.5,0.5-0.6,0.9-0.6,1.4s0.2,1,0.6,1.4c0.5,0.5,0.9,0.6,1.4,0.6c0.5,0,0.9-0.2,1.3-0.5
			c-0.5,0.8-0.5,2,0.3,2.7c0.5,0.3,0.9,0.5,1.3,0.5s0.9-0.2,1.3-0.5c-0.2,0.3-0.3,0.7-0.3,1.2s0.2,1,0.6,1.4s0.9,0.6,1.4,0.6
			s1-0.2,1.4-0.6c0.5-0.5,0.6-0.9,0.6-1.4c0-0.5-0.2-1-0.6-1.4C80.1,69.9,78.8,69.9,78,70.5z"/>
	</symbol>
	<symbol id="foriegn-language" viewBox="0 0 100 100">
		<path d="M67.4,40.4c0.1,1.6,0.2,3,0.4,4.2c1.2-1.3,2.3-2.9,3-4.7C70.4,39.9,68.8,40.1,67.4,40.4z"/>
		<path d="M59.7,46.9c0,1.8,1.3,1.7,1.7,1.7c1,0,2-0.5,3.1-1.2c-0.3-1.6-0.6-3.6-0.7-5.7
			C61.4,42.9,59.7,44.8,59.7,46.9z"/>
		<path d="M94.3,43.4c1.3-11.8-9.1-22.8-23.2-24.4c-1.2-0.1-2.4-0.2-3.6-0.2c-12.6,0-23.2,7.8-24.4,18.6
			c-1.3,11.8,9.1,22.8,23.2,24.4c1.2,0.1,2.4,0.2,3.6,0.2c1.3,0,2.6-0.1,3.8-0.2c5.1,5.5,10.3,7,13.3,7c1.9,0,2.8-0.6,2.1-1.2
			c-4.3-3.4-5.2-6.8-5-9.4C89.7,54.9,93.6,49.6,94.3,43.4z M73.7,53.8l-1.5-3.1c3.7-0.9,6-2.7,6-5.5c0-1-0.3-3.4-3.7-4.5
			c-1.4,3.1-3.4,6-5.9,8.1c0.1,0.4,0.9,1.8,1.1,2.1l-3.2,2.1c-0.2-0.3-0.9-1.7-1.1-2.1c-1.6,0.9-3.3,1.4-5,1.4c-2.7,0-4.5-1.7-4.5-4.6
			c0-4.3,3.3-7.7,7.7-9.5c-0.1-1.3-0.1-2.7-0.1-4.1c-2.3,0.1-4.8,0.1-6.1,0.1l-0.2-3.6c1.4,0,4,0,6.3,0c0.1-1.3,0.1-2.9,0.2-4.2l4,0.3
			c-0.1,0.3-0.2,2.8-0.3,3.8c3.4-0.2,7.6-0.6,11.1-1.3l0.3,3.8c-3.4,0.6-7.9,0.9-11.6,1.1c0,1.1-0.1,2.1-0.1,3.2
			c1.3-0.3,3.2-0.5,4.7-0.4c0.1-0.5,0.2-0.9,0.2-1.4l3.8,1c-0.1,0.3-0.2,0.7-0.2,1c4.5,1.2,6.5,4.4,6.5,7.9
			C82.3,49.3,79.6,52.4,73.7,53.8z"/>
		<path d="M40.5,37c0.1-1.1,0.6-2.9,0.9-3.5c-2.5-0.7-5.8-1.3-8.6-1.3c-1.2,0-2.4,0.1-3.6,0.2C15,34.1,4.5,45,5.8,56.9
			c0.7,6.3,4.6,11.5,10.1,14.8c0.3,2.6-0.6,6-5,9.4c-0.7,0.5,0.2,1.2,2.2,1.2c3,0,8.3-1.5,13.4-7c1.3,0.2,2.5,0.2,3.9,0.2
			c1.2,0,2.4-0.1,3.6-0.2c9.4-1.1,17.2-5.9,21.4-13.8C45.8,56.8,39.4,47.8,40.5,37z M35.5,67.2l-1.9-7.1h-7.2l-1.8,7.1h-5.2l7.6-26.7
			h6.5l7.5,26.7H35.5z"/>
		<path d="M30,44.7h-0.1c-0.3,1.7-0.8,3.9-1.2,5.4l-1.6,6.1h5.7l-1.6-6.1C30.8,48.5,30.4,46.3,30,44.7z"/>
	</symbol>
	<symbol id="geology" viewBox="0 0 100 100">
		<path  d="M92.6,70.7l-0.8-25.2c0-0.3-0.1-0.6-0.3-0.8l-21-29.9c0,0,0,0,0,0c-0.1-0.1-0.1-0.2-0.2-0.2
			c0,0,0,0-0.1,0c-0.1-0.1-0.1-0.1-0.2-0.1c0,0-0.1,0-0.1-0.1c-0.1,0-0.1,0-0.2-0.1c0,0-0.1,0-0.1,0c0,0,0,0,0,0l-24-3.5
			c-0.2,0-0.3,0-0.5,0c-0.1,0-0.1,0-0.2,0.1c-0.1,0-0.2,0.1-0.3,0.1c0,0,0,0,0,0L37,15.3c-0.3,0.2-0.6,0.5-0.7,0.9l-5,17.4L19,31.1
			c0,0,0,0-0.1,0c0,0-0.1,0-0.1,0c-0.1,0-0.1,0-0.2,0c0,0-0.1,0-0.1,0c0,0-0.1,0-0.1,0c0,0-0.1,0-0.1,0c0,0-0.1,0-0.1,0
			c0,0-0.1,0-0.1,0.1c0,0-0.1,0-0.1,0.1c0,0-0.1,0.1-0.1,0.1c0,0-0.1,0.1-0.1,0.1c0,0-0.1,0.1-0.1,0.1c0,0-0.1,0.1-0.1,0.1
			c0,0,0,0,0,0.1L9.8,43.4c-0.1,0.2-0.2,0.4-0.2,0.6l-1.2,8.8c0,0,0,0,0,0.1c0,0.1,0,0.2,0,0.2c0,0,0,0.1,0,0.1c0,0.1,0,0.2,0.1,0.2
			c0,0,0,0.1,0,0.1c0,0.1,0.1,0.2,0.2,0.3c0,0,0,0,0,0c0,0,0,0,0,0L36.9,91c0.3,0.4,0.7,0.6,1.2,0.6c0.1,0,0.1,0,0.2,0l8.9-1.1
			c0.4-0.1,0.8-0.3,1-0.6l4.4-6.6l11.2,7c0.2,0.1,0.5,0.2,0.8,0.2c0,0,0.1,0,0.1,0l9.1-0.6c0.1,0,0.2,0,0.3-0.1c0,0,0.1,0,0.1,0l0,0
			c0.1,0,0.3-0.1,0.4-0.2c0,0,0,0,0.1-0.1c0.1-0.1,0.2-0.1,0.2-0.2c0,0,0.1-0.1,0.1-0.1c0-0.1,0.1-0.1,0.1-0.2c0,0,0,0,0,0
			c0-0.1,0-0.1,0-0.2c0-0.1,0-0.2,0.1-0.3c0,0,0,0,0-0.1L75.9,69c0-0.3-0.1-0.7-0.3-0.9L51.8,34.5c0,0,0,0,0,0c0,0-0.1-0.1-0.1-0.1
			c-0.1-0.1-0.1-0.1-0.2-0.2c0,0-0.1-0.1-0.1-0.1c-0.1,0-0.1-0.1-0.2-0.1c0,0-0.1,0-0.1,0c-0.1,0-0.2,0-0.2-0.1c0,0-0.1,0-0.1,0
			l-6.1-0.5l2.7-2.1l5.1,0.6l24,33.9c0.2,0.2,0.4,0.4,0.6,0.5l13.3,6.1c0.2,0.1,0.4,0.1,0.6,0.1c0,0,0,0,0,0c0.8,0,1.5-0.7,1.5-1.5
			C92.6,70.9,92.6,70.8,92.6,70.7z M39,17.5l5.9-3.5l0.6,0.7l2.3,2.5L45.7,29l-5.7,4.5l-4.1,2.4l-1.8-1.2h0l0,0L39,17.5z M26.3,46.1
			l1.6-8.1l5.1-0.5l0.8,0.5l-6.6,9.2L26.3,46.1z M19.2,34.4l5.8,3l-1.5,8l-5.8,2.5l-6.1,2.6l0.8-5.8L19.2,34.4z M46.1,87.6l-7.4,0.9
			l-26.5-35l11.6-5l0.6-0.3l1.7,2.3c0,0,0,0,0,0c0,0,0,0,0,0l24.2,30.8L46.1,87.6z M64.8,87.5l-11.8-7.4L30,50.7l10.5-1.4l30.1,37.7
			L64.8,87.5z M40.4,46.4l-10,1.3l6.5-9l4.3-2.5l6.7,0.5L40.4,46.4z"/>
	</symbol>
	<symbol id="management" viewBox="0 0 100 100">
		<path d="M43.8,9.8H13.1c-1.7,0-3.1,1.4-3.1,3.1v49.2c0,1.7,1.4,3.1,3.1,3.1h16.2l-6.9,20.6c-0.5,1.6,0.3,3.4,1.9,3.9
			c0.3,0.1,0.7,0.2,1,0.2c1.3,0,2.5-0.8,2.9-2.1l7.5-22.5h11.1v24.6c0,1.7,1.4,3.1,3.1,3.1s3.1-1.4,3.1-3.1V65.2h11.1l7.5,22.5
			c0.4,1.3,1.6,2.1,2.9,2.1c0.3,0,0.7-0.1,1-0.2c1.6-0.5,2.5-2.3,1.9-3.9l-6.9-20.6h16.2c1.7,0,3.1-1.4,3.1-3.1V12.9
			c0-1.7-1.4-3.1-3.1-3.1H56.2 M28.5,52.9c-6.8,0-12.3-5.5-12.3-12.3s5.5-12.3,12.3-12.3v12.3h12.3C40.8,47.4,35.3,52.9,28.5,52.9z
			 M34.6,34.4V22.1c6.8,0,12.3,5.5,12.3,12.3L34.6,34.4L34.6,34.4z M71.5,52.9H53.1v-6.2h18.5V52.9z M83.8,40.6H53.1v-6.2h30.8
			L83.8,40.6L83.8,40.6z M83.8,28.3H53.1v-6.2h30.8L83.8,28.3L83.8,28.3z"/>
	</symbol>
	<symbol id="marketing" viewBox="0 0 100 100">
			<path  d="M10.2,79.3c-1.2-1.2-3.1-1.2-4.2,0s-1.2,3.1,0,4.2l0,0l10.9,10.7c1.2,1.2,3.1,1.3,4.2,0.1
		s1.3-3.1,0.1-4.2C21,90.1,21,90.1,20.9,90l-1.1-1.1l9.3-4.6l2.8,2.8c5,5,13.1,4.8,18.1-0.1c3.7-3.8,4.7-9.4,2.6-14.2l20.2-9.9
		l2.2,2.2c1.3,1.2,3.2,1.1,4.2-0.2c1.1-1.2,1.1-3,0-4.1L38.5,20.6c-1.2-1.2-3.1-1.3-4.2-0.1c-1.2,1.2-1.3,3.1-0.1,4.2
		c0.1,0.1,0.1,0.1,0.2,0.2l1.9,1.9L10.9,80L10.2,79.3z M45.8,83c-2.6,2.6-6.8,2.6-9.4,0.1L35,81.7l12.3-6C48.3,78.2,47.7,81,45.8,83z
		 M18.9,77.1l19.7-41.7c0.2-0.5,0.8-0.7,1.4-0.5c0.1,0,0.2,0.1,0.2,0.2l5.1,5.1c0.6,0.6,0.7,1.5,0.2,2.2L19.9,77.6
		c-0.1,0.2-0.5,0.4-0.7,0.2C18.9,77.7,18.8,77.3,18.9,77.1z M62.8,35.4c-0.1-0.5-0.1-0.8,0-1.3c0-0.2,0.1-0.4,0.2-0.6
		c0.1-0.2,0.2-0.4,0.4-0.6c0.2-0.4,0.6-0.7,0.9-0.9c0.1-0.1,0.4-0.2,0.6-0.4c0.2-0.1,0.4-0.1,0.6-0.2c0.2,0,0.5,0,0.6,0
		c0.2,0,0.5,0,0.6,0.1c0.2,0,0.5,0.1,0.6,0.2c0.2,0.1,0.4,0.2,0.6,0.4c0.4,0.2,0.7,0.6,0.9,0.9c0.1,0.1,0.2,0.4,0.4,0.6
		c0.1,0.2,0.1,0.4,0.2,0.6c0,0.2,0.1,0.5,0.1,0.6c0,0.8-0.4,1.7-0.9,2.2c-0.1,0.1-0.4,0.2-0.5,0.4c-0.2,0.1-0.4,0.2-0.6,0.4
		c-0.2,0.1-0.4,0.1-0.6,0.1c-0.2,0-0.5,0.1-0.6,0.1c-0.2,0-0.5,0-0.6,0c-0.2,0-0.4-0.1-0.6-0.2c-0.2-0.1-0.4-0.2-0.6-0.4
		c-0.4-0.2-0.7-0.6-0.9-0.9c-0.1-0.1-0.2-0.4-0.4-0.6C63.1,35.8,62.9,35.5,62.8,35.4L62.8,35.4z M75.7,29.6c-1.3,1.3-3.3,1.3-4.6,0
		c-1.3-1.3-1.3-3.3,0-4.6c1.3-1.3,3.3-1.3,4.6,0C77,26.3,77,28.3,75.7,29.6L75.7,29.6z M80.8,23.3c-1.8,0-3.3-1.4-3.3-3.3
		c0-0.2,0-0.5,0.1-0.6c0-0.2,0.1-0.4,0.2-0.6c0.1-0.2,0.2-0.4,0.4-0.6c0.6-0.9,1.7-1.4,2.7-1.4c1.8,0,3.3,1.4,3.3,3.3
		c0,0.8-0.4,1.7-0.9,2.4C82.5,22.9,81.7,23.3,80.8,23.3z M60.7,26.3c0.1,0.2,0.1,0.4,0.2,0.6c0,0.2,0,0.5,0,0.6
		c0,0.8-0.4,1.7-0.9,2.2c-0.1,0.1-0.4,0.2-0.5,0.4c-0.1,0.1-0.4,0.2-0.6,0.4s-0.4,0.1-0.6,0.2c-0.2,0-0.5,0-0.6,0
		c-0.2,0-0.5,0-0.6-0.1c-0.2,0-0.4-0.1-0.6-0.2c-0.2-0.1-0.4-0.2-0.6-0.4s-0.4-0.2-0.5-0.4c-0.1-0.1-0.2-0.4-0.4-0.5
		c-0.1-0.1-0.2-0.4-0.4-0.6c-0.1-0.2-0.1-0.4-0.2-0.6c-0.1-0.5-0.1-0.8,0-1.3c0-0.2,0.1-0.5,0.2-0.6c0.1-0.2,0.2-0.4,0.4-0.6
		c0.6-0.9,1.7-1.4,2.7-1.4c0.2,0,0.5,0,0.6,0c0.2,0,0.4,0.1,0.6,0.2s0.4,0.2,0.6,0.4c0.2,0.1,0.4,0.2,0.5,0.4
		c0.1,0.1,0.2,0.4,0.4,0.5C60.5,26,60.6,26.2,60.7,26.3L60.7,26.3z M60.6,21c-1.7-0.7-2.4-2.7-1.7-4.2c0.7-1.5,2.7-2.4,4.2-1.7
		c1.7,0.7,2.4,2.7,1.7,4.2c-0.1,0.4-0.4,0.7-0.7,0.9C63.3,21.4,61.9,21.6,60.6,21L60.6,21z M69.4,8.6c0,1.8-1.4,3.3-3.2,3.3l0,0
		c-0.2,0-0.5,0-0.6-0.1c-0.2,0-0.4-0.1-0.6-0.2s-0.4-0.2-0.6-0.4c-0.2-0.1-0.4-0.2-0.5-0.4c-0.7-0.6-1.1-1.4-1.1-2.2
		c0.1-1.8,1.5-3.2,3.3-3.3c0.8,0,1.7,0.4,2.4,0.9c0.1,0.1,0.2,0.4,0.4,0.5c0.1,0.2,0.2,0.4,0.4,0.6c0.1,0.2,0.1,0.4,0.2,0.6
		C69.4,8.2,69.4,8.4,69.4,8.6z M76.2,41.9c0.1,0.2,0.1,0.4,0.2,0.6c0,0.2,0,0.5,0,0.6c0,1.1-0.6,2.1-1.4,2.7
		c-0.1,0.1-0.4,0.2-0.6,0.4c-0.2,0.1-0.4,0.1-0.6,0.2c-0.5,0.1-0.8,0.1-1.3,0c-0.2,0-0.5-0.1-0.6-0.2c-0.2-0.1-0.4-0.2-0.6-0.4
		c-0.2-0.1-0.4-0.2-0.5-0.4c-0.1-0.1-0.2-0.4-0.4-0.5c-0.1-0.2-0.2-0.4-0.4-0.6C70,44.2,70,43.9,70,43.8c0-0.2-0.1-0.5-0.1-0.6
		c0-0.2,0-0.5,0-0.6c0-0.2,0.1-0.4,0.2-0.6c0.1-0.2,0.2-0.4,0.4-0.6c0.1-0.2,0.2-0.4,0.4-0.5c0.6-0.6,1.4-0.9,2.2-0.9
		c0.2,0,0.5,0,0.6,0c0.2,0,0.4,0.1,0.6,0.2c0.2,0.1,0.4,0.2,0.6,0.4c0.1,0.1,0.4,0.2,0.5,0.4s0.2,0.4,0.4,0.5
		C75.9,41.4,76,41.7,76.2,41.9z M79.7,40.1c-0.6-1.2-0.2-2.7,0.7-3.7c0.2-0.2,0.6-0.5,0.9-0.7c1.7-0.7,3.5,0,4.2,1.7s0,3.5-1.7,4.2
		C82.3,42.5,80.4,41.8,79.7,40.1L79.7,40.1z M94.6,32.2c0.6,0.6,0.9,1.4,0.9,2.4c-0.1,1.8-1.5,3.2-3.3,3.3c-0.8,0-1.7-0.4-2.2-0.9
		c-0.1-0.1-0.2-0.4-0.4-0.5c-0.1-0.2-0.2-0.4-0.4-0.6c-0.1-0.2-0.1-0.4-0.2-0.6c0-0.2-0.1-0.5-0.1-0.7c0-1.8,1.4-3.3,3.2-3.3l0,0
		c0.2,0,0.5,0,0.6,0c0.2,0,0.4,0.1,0.6,0.2c0.2,0.1,0.4,0.2,0.6,0.4C94.2,32,94.3,32.1,94.6,32.2L94.6,32.2z"/>
	</symbol>
	<symbol id="math" viewBox="0 0 100 100">
		<path d="M75.5,8.8H25.3c-3.4,0-6.2,2.8-6.2,6.2v70c0,3.4,2.8,6.2,6.2,6.2h50.2c3.4,0,6.2-2.8,6.2-6.2V15
			C81.6,11.6,78.9,8.8,75.5,8.8z M38.4,82.5H27.8v-8.8h10.6V82.5z M38.4,66.7H27.8v-8.8h10.6V66.7z M38.4,50.8H27.8V42h10.6V50.8z
			 M55.7,82.5H45.1v-8.8h10.6V82.5z M55.7,66.7H45.1v-8.8h10.6V66.7z M55.7,50.8H45.1V42h10.6V50.8z M72.9,82.5H62.3V57.9h10.6V82.5z
			 M72.9,50.8H62.3V42h10.6V50.8z M72.9,34H27.8V18.4h45.1V34z"/>
	</symbol>
	<symbol id="organic-chemistry" viewBox="0 0 100 100">
		<polygon class="st0" points="42.9,32.2 22.1,32.2 11.6,50.2 22.1,68.3 42.9,68.3 53.3,50.2 	"/>
		<polygon class="st0" points="76.5,49 87,31 76.5,13 55.7,13 45.3,31 55.7,49 	"/>
		<polygon class="st0" points="55.7,51.5 45.3,69.5 55.7,87.5 76.5,87.5 87,69.5 76.5,51.5 	"/>
	</symbol>
	<symbol id="physics" viewBox="0 0 100 100">
		<path d="M80.2,66.6c-7.7,0-13.9-6.3-13.9-13.9c0-7.7,6.3-13.9,13.9-13.9
			c7.7,0,13.9,6.3,13.9,13.9C94.1,60.3,87.9,66.6,80.2,66.6L80.2,66.6z M53.7,72.2c-1.8-1.8-1.8-4.8,0-6.6c1.8-1.8,4.8-1.8,6.6,0
			c1.8,1.8,1.8,4.8,0,6.6c-0.9,0.9-2.1,1.3-3.3,1.3C55.8,73.5,54.6,73.1,53.7,72.2L53.7,72.2z M39.7,86.1c-1.8-1.8-1.8-4.8,0-6.6
			c1.8-1.8,4.8-1.8,6.6,0c1.8,1.8,1.8,4.8,0,6.6c-0.9,0.9-2.1,1.3-3.3,1.3C41.8,87.5,40.6,87,39.7,86.1L39.7,86.1z M21.2,58.2
			c-1.8-1.8-1.8-4.8,0-6.6c1.8-1.8,4.8-1.8,6.6,0c1.8,1.8,1.8,4.8,0,6.6c-0.9,0.9-2.1,1.3-3.3,1.3C23.3,59.6,22.1,59.2,21.2,58.2
			L21.2,58.2z M30.5,72.2c-1.8-1.8-1.8-4.8,0-6.6c1.8-1.8,4.8-1.8,6.6,0c1.8,1.8,1.8,4.8,0,6.6c-0.9,0.9-2.1,1.3-3.3,1.3
			C32.5,73.5,31.3,73.1,30.5,72.2L30.5,72.2z M7.2,44.3c-1.8-1.8-1.8-4.8,0-6.6c1.8-1.8,4.8-1.8,6.6,0c1.8,1.8,1.8,4.8,0,6.6
			c-0.9,0.9-2.1,1.3-3.3,1.3C9.3,45.7,8.1,45.2,7.2,44.3L7.2,44.3z"/>
	</symbol>
	<symbol id="psychology" viewBox="0 0 100 100">
		<path  d="M83.2,46.5c1.4-10.6-2.9-23.3-15.6-29c-10.1-4.5-27.8-4.5-37.2,4c-8.2,7.4-10,18-10,18
			s-0.8,3.9-0.8,5.2c0,1.2,1.4,1.7,1.2,2.4c-0.2,0.6-1.7,2.5-2.9,4.5c-1.2,2-4.3,6.5-4.3,7.7c0,1.2,0.7,1.6,2.2,2.1
			c1.4,0.5,2.6,0.9,2.8,1.4s-0.7,2.2-0.7,3.3c0,1,0.3,1.1,1,1.4c0.9,0.4,2.3,0.4,2.3,0.4s-3.1,0.6-2.8,1.9c0.3,1.3,2.2,1.6,2.3,2.6
			c0.1,0.5-1.6,3.2-1.4,5.8c0.3,3.4,3.5,4.9,8.6,4.1c4.8-0.8,7.1-1.5,7.7,1.2c0.4,1.7,0.3,4.5,1.1,7.7c0,0.1,0.1,0.3,0.1,0.4h37.1
			c-1.6-2.9-3.7-7.5-3.7-13.5c0-4.1,0.4-10.1,3.3-13.3C77.2,60.8,82,55.1,83.2,46.5z M67.8,55c0,0-0.5,5.3-4.4,6
			c-3.3,0.6-5.6-2.6-5.6-2.6l-1.1,5.2h-2.3c0,0-2.1-7.8-3.6-9.1c-1.5-1.3-3.7-1.7-3.7-1.7s-3.1-0.2-5-2.2c-2-2-0.1-4.4-0.1-4.4
			s-2.5,0.1-7.5-0.9c-5-1.1-3.5-4.3-3.5-4.3s-1.3,0.2-2.4-1.2c-0.8-1-1.3-3.4,0.1-6.2c1.3-2.5,3.5-3.4,3.5-3.4s-0.8-1,0.9-2.5
			c0.9-0.8,2.5-0.7,2.5-0.7s0.4-1.7,2.8-2.8c2.7-1.2,4.6-0.2,4.6-0.2s0.7-1.6,2.9-2.3C47.9,20.8,50,22,50,22s1.4-1.3,4.1-1.3
			c2.6,0,3.6,1.4,3.6,1.4s1.6-0.8,3.5-0.1c1.8,0.6,2.3,2.4,2.3,2.4s1.3-0.9,3.1-0.2c1.8,0.7,2.6,2.7,2.6,2.7s1.3-0.2,2.5,0.9
			c0.9,0.8,0.6,2.4,0.6,2.4s1.6,0.5,2.5,2.4c0.9,1.7-0.4,3.2-0.4,3.2s2.6,1.9,2.9,6.9c0.4,6.1-3.4,7.2-3.4,7.2s0.8,1.9-0.6,4
			C71.6,56.6,67.8,55,67.8,55z"/>
	</symbol>
	<symbol id="sociology" viewBox="0 0 100 100">
		<path d="M46.3,76.8c-4-2.8-5.1-8.3-2.3-12.3c2.8-4,8.3-5.1,12.3-2.3s5.1,8.3,2.3,12.3c-0.6,0.9-1.4,1.7-2.3,2.3c4.8,2,8,6.7,8,11.9
			v4.4c0,1-0.8,1.8-1.8,1.8H40.1c-1,0-1.8-0.8-1.8-1.8v-4.4C38.3,83.5,41.5,78.8,46.3,76.8z M31.3,50.3c1,0,1.8-0.8,1.8-1.8v-4.4
			c0-5.2-3.2-9.9-8-11.9c4-2.8,5.1-8.3,2.3-12.3s-8.3-5.1-12.3-2.3s-5.1,8.3-2.3,12.3c0.6,0.9,1.4,1.7,2.3,2.3c-4.8,2-8,6.7-8,11.9
			v4.4c0,1,0.8,1.8,1.8,1.8L31.3,50.3z M87.5,32.2c4-2.8,5.1-8.3,2.3-12.3c-2.8-4-8.3-5.1-12.3-2.3s-5.1,8.3-2.3,12.3
			c0.6,0.9,1.4,1.7,2.3,2.3c-4.8,2-8,6.7-8,11.9v4.4c0,1,0.8,1.8,1.8,1.8h22.4c1,0,1.8-0.8,1.8-1.8v-4.4
			C95.4,38.9,92.2,34.2,87.5,32.2L87.5,32.2z M31.3,82.4c1.6,1.1,3.8,0.6,4.8-1c1.1-1.6,0.6-3.8-1-4.8c0,0-0.1,0-0.1-0.1
			c-6.9-4.3-11.8-11.1-13.7-18.9c-0.5-1.9-2.4-3-4.3-2.5c-1.8,0.5-2.9,2.3-2.5,4.1C16.9,68.8,22.9,77.1,31.3,82.4L31.3,82.4z
			 M67.7,16.2c-10.4-5-22.4-5-32.8,0c-1.7,0.8-2.5,2.9-1.6,4.7c0.8,1.7,2.9,2.5,4.7,1.6c8.4-4.1,18.3-4.1,26.7,0
			c1.7,0.8,3.8,0.1,4.7-1.6C70.2,19.2,69.4,17.1,67.7,16.2L67.7,16.2z M85.6,54.9c-1.9-0.5-3.8,0.7-4.2,2.6
			c-1.9,7.9-6.8,14.7-13.7,18.9c-1.7,1-2.2,3.1-1.2,4.8c1,1.7,3.1,2.2,4.8,1.2c0,0,0.1,0,0.1-0.1c8.4-5.3,14.4-13.6,16.8-23.2
			C88.6,57.3,87.4,55.4,85.6,54.9z"/>
	</symbol>
	<symbol id="statistics" viewBox="0 0 100 100">
		<polygon points="32.4,61.8 13.2,78.3 13.2,90.2 32.4,90.2"/>
		<polygon points="43.6,52.2 38.8,56.3 38.8,90.2 57.9,90.2 57.9,61.3 "/>
		<polygon points="64.3,54.6 64.3,90.2 83.4,90.2 83.4,37.5 80.9,35.3 "/>
		<polygon points="43.1,47 57.5,56 80.5,29.3 85.2,33.4 88.7,14.7 70.8,21 75.6,25.1 56.2,47.7 42.6,39 13.2,64.2
			13.2,72.6 "/>
	</symbol>
	<symbol id="nutrition" viewBox="0 0 100 100">
		<path class="st0" d="M91.9,89.5H50H8c-2.3,0-3.7-2.5-2.6-4.5l9.9-17.3h69.2l9.9,17.3C95.6,87.1,94.2,89.5,91.9,89.5z M32.6,38.2
		h34.8l12.7,21.7H19.8L32.6,38.2z M64.3,43.1H35.6l-7,11.9h42.7L64.3,43.1z M47.4,12c1.1-2,4-2,5.1,0l10.7,18.3H37L47.4,12z M50,17.4
		l-4.8,7.9h9.3L50,17.4z"/>
	</symbol>
	<symbol id="history" viewBox="0 0 100 100">
			<rect x="14.8" y="45.6" class="st0" width="7.8" height="35.2"/>
			<rect x="46.1" y="45.6" class="st0" width="7.8" height="35.2"/>
			<rect x="77.4" y="45.6" class="st0" width="7.8" height="35.2"/>
			<rect x="30.5" y="45.6" class="st0" width="7.8" height="35.2"/>
			<rect x="61.7" y="45.6" class="st0" width="7.8" height="35.2"/>
			<rect x="7" y="82.7" class="st0" width="86" height="7.8"/>
			<path class="st0" d="M57.2,13.8c-2.2-1.3-4.7-2-7.2-2c-2.5,0-5,0.7-7.2,2L7,35.8v7.8h86v-7.8L57.2,13.8z M27.6,35.8l19.1-11.7h6.7
				l19.1,11.7H27.6z"/>
	</symbol>
</svg>
