<?xml version="1.0" encoding="utf-8"?>
<!-- Generator: Adobe Illustrator 20.1.0, SVG Export Plug-In . SVG Version: 6.00 Build 0)  -->
<svg version="1.1" id="Layer_1" xmlns="http://www.w3.org/2000/svg" xmlns:xlink="http://www.w3.org/1999/xlink" x="0px" y="0px"
	 viewBox="0 0 100 100" enable-background="new 0 0 100 100" xml:space="preserve">
<g id="JAPANESE" display="none">
	<rect x="7.8" y="26.3" display="inline" fill="none" stroke="#CCCCCC" stroke-miterlimit="10" width="84.6" height="48.9"/>
	<circle display="inline" fill="#CCCCCC" cx="51.9" cy="50.8" r="16.7"/>
</g>
<g id="economics">
	<path fill="#C9C9C9" d="M93.5,51.7c-0.1-10.9-4.6-21.2-12.7-28.9c-8.1-7.7-19-12-30.5-12.1h-0.4C25.9,10.9,6.6,29.3,6.5,51.9
		c0,0,0,0,0,0c0,0,0,0,0,0c0,0.1,0,0.1,0,0.2c0.1,11,4.6,21.2,12.8,29c8.2,7.7,19.1,12,30.6,12h0h0l0.2,0C74.1,93,93.4,74.6,93.5,52
		c0,0,0,0,0-0.1c0,0,0,0,0,0C93.5,51.9,93.5,51.8,93.5,51.7z M79.2,27.3c-3,1.9-6.1,3.4-9.4,4.7c-2.1-4.8-5.1-9.3-8.7-13.4
		c-0.9-1-1.8-1.9-2.7-2.8C66.6,17.4,73.8,21.5,79.2,27.3z M41.6,15.7c-4.9,4.7-8.8,10.2-11.4,16.2c-3.3-1.2-6.4-2.8-9.4-4.7
		C26.2,21.5,33.4,17.4,41.6,15.7z M18.1,30.4c3.4,2.1,6.9,3.9,10.6,5.3c-1.4,3.9-2.2,7.9-2.6,12.1c-0.1,0.7-0.1,1.5-0.1,2.2H10.8
		C11.2,42.7,13.9,36,18.1,30.4z M18.1,73.5c-4.2-5.6-6.9-12.3-7.3-19.6h15.1c0.2,4.9,1.1,9.7,2.6,14.3
		C24.9,69.7,21.4,71.4,18.1,73.5z M20.8,76.7c3-1.8,6.1-3.4,9.3-4.6c2.2,4.9,5.1,9.6,8.9,13.8c0.7,0.8,1.4,1.5,2.2,2.3
		C33.1,86.3,26.1,82.3,20.8,76.7z M52.1,88.7V78.5h-4.2v10.2c-2.1-1.7-4-3.5-5.7-5.5c-3.5-3.9-6.1-8.1-8.1-12.6
		c0.4-0.1,0.7-0.2,1.1-0.3c-0.1,0-0.1-0.1-0.2-0.1l-2.6-1.4l0.6-2.1c-0.1,0-0.2,0.1-0.3,0.1c-1.4-4.2-2.2-8.6-2.4-12.9h7.9
		c-1.4-1.1-2.6-2.4-3.5-4h-4.4c0.2-4.4,1.1-8.7,2.5-12.9c0.8,0.2,1.6,0.5,2.5,0.7c0.8-1.3,1.8-2.4,3.1-3.4c-1.4-0.3-2.7-0.6-4.1-1
		c3-6.6,7.5-12.7,13.7-17.7v9.8h4.2v-9.8c2.1,1.7,4,3.5,5.7,5.5c3.4,3.8,6,7.9,7.9,12.2c-0.2,0.1-0.4,0.1-0.5,0.2l0.9,0.4l-0.8,3
		l-0.2,0.8c0.7-0.2,1.5-0.4,2.2-0.6c1.5,4.2,2.3,8.5,2.5,12.9h-6c1,1.1,1.9,2.4,2.5,4h3.6c-0.2,4.4-1,8.7-2.4,12.9
		c-0.9-0.3-1.8-0.5-2.7-0.7c-0.9,1.3-2,2.4-3.4,3.4c1.5,0.3,3.1,0.7,4.6,1.1C63,77.4,58.4,83.6,52.1,88.7z M58.9,88.1
		C63.7,83.4,67.4,78,70,72c3.2,1.2,6.3,2.8,9.3,4.6C74,82.3,66.9,86.3,58.9,88.1z M81.9,73.5c-3.3-2.1-6.8-3.9-10.5-5.3
		c1.3-3.8,2.1-7.7,2.5-11.7c0.1-0.9,0.1-1.7,0.2-2.6h15.1C88.8,61.2,86.1,68,81.9,73.5z M74.1,49.9c-0.2-4.9-1.1-9.7-2.8-14.3
		c3.7-1.4,7.2-3.2,10.6-5.3c4.2,5.6,6.9,12.3,7.3,19.6H74.1z"/>
	<path fill="#C9C9C9" d="M53.4,48.2c-5.1-1.7-7.2-3-7.2-4.8c0-1.6,1.2-3.2,5.1-3.2c4.3,0,7,1.3,8.5,2l1.8-6.3
		C59.5,35,56.9,34.1,53,34v-4.9h-5.8v5.3c-6.3,1.1-10,5-10,10c0,5.4,4.3,8.2,10.7,10.3c4.4,1.4,6.3,2.7,6.3,4.9
		c0,2.2-2.3,3.5-5.7,3.5c-3.8,0-7.3-1.2-9.8-2.5l-1.8,6.6c2.2,1.2,6.1,2.2,10.1,2.4v5.3h5.9V69c6.8-1.1,10.5-5.3,10.5-10.3
		C63.2,53.6,60.4,50.6,53.4,48.2z"/>
</g>
<g id="korean" transform="rotate(-56.3099325)" display="none">
	<g display="inline">
		
			<rect x="-56.8" y="43.3" fill="#FFFFFF" stroke="#CCCCCC" stroke-width="1.6897" stroke-miterlimit="10" width="84.8" height="52.8"/>
		<g id="b2_22_">
			<path fill="#010101" stroke="#010101" stroke-width="0.1807" d="M-20.7,41.2h13.6 M-20.7,44.6h13.6 M-20.7,48h13.6"/>
			<g>
				<path fill="#010101" stroke="#010101" stroke-width="0.1807" d="M-20.7,90.9h13.6 M-20.7,94.3h13.6 M-20.7,97.7h13.6"/>
			</g>
		</g>
		<line fill="#010101" stroke="#FFFFFF" stroke-width="9.036501e-02" x1="-13.9" y1="88.7" x2="-13.9" y2="100"/>
		<g>
			
				<ellipse transform="matrix(0.5547 -0.8321 0.8321 0.5547 -64.0143 19.3472)" opacity="0.69" fill="#C62032" cx="-13.9" cy="69.5" rx="13.6" ry="13.6"/>
		</g>
		<path fill="#223B74" d="M-13.9,55.9c-3.7,0-6.8,3-6.8,6.8s3,6.8,6.8,6.8s6.8,3,6.8,6.8s-3,6.8-6.8,6.8c-7.5,0-13.6-6.1-13.6-13.6
			C-27.5,62-21.4,55.9-13.9,55.9z"/>
		<g>
			<g transform="rotate(-123.6900675)">
				<g id="b2_21_">
					<path fill="#010101" stroke="#010101" stroke-width="0.1807" d="M-30.3-71.4l7.5,11.3 M-33.2-69.6l7.5,11.3 M-36-67.7l7.5,11.3
						"/>
					<g>
						<path fill="#010101" stroke="#010101" stroke-width="0.1807" d="M-71.7-43.9l7.5,11.3 M-74.5-42l7.5,11.3 M-77.3-40.1
							l7.5,11.3"/>
					</g>
				</g>
				<path fill="#010101" stroke="#FFFFFF" stroke-width="9.036501e-02" d="M-28-64.9l-2.8,1.9 M-66.1-39.5l-3.3,2.2 M-72.2-35.4
					l-2.8,1.9"/>
			</g>
		</g>
	</g>
	<g display="inline">
		<rect x="-56.8" y="43.3" fill="#231F20" width="84.8" height="52.8"/>
		<g id="b2_20_">
			<path fill="#231F20" d="M-20.7,41.2h13.6 M-20.7,44.6h13.6 M-20.7,48h13.6"/>
			<g>
				<path fill="#231F20" d="M-20.7,90.9h13.6 M-20.7,94.3h13.6 M-20.7,97.7h13.6"/>
			</g>
		</g>
		<line fill="#231F20" x1="-13.9" y1="88.7" x2="-13.9" y2="100"/>
		<g>
			
				<ellipse transform="matrix(0.5547 -0.8321 0.8321 0.5547 -64.014 19.3472)" fill="#231F20" cx="-13.9" cy="69.5" rx="13.6" ry="13.6"/>
			
				<ellipse transform="matrix(0.5547 -0.8321 0.8321 0.5547 -64.014 19.3472)" fill="#231F20" cx="-13.9" cy="69.5" rx="13.6" ry="13.6"/>
		</g>
		<path fill="#231F20" d="M-13.9,55.9c-3.7,0-6.8,3-6.8,6.8s3,6.8,6.8,6.8s6.8,3,6.8,6.8c0,3.7-3,6.8-6.8,6.8
			c-7.5,0-13.6-6.1-13.6-13.6C-27.5,62-21.4,55.9-13.9,55.9z"/>
		<g>
			<g transform="rotate(-123.6900675)">
				<g id="b2_19_">
					<path fill="#231F20" d="M-30.3-71.4l7.5,11.3 M-33.2-69.6l7.5,11.3 M-36-67.7l7.5,11.3"/>
					<g>
						<path fill="#231F20" d="M-71.7-43.9l7.5,11.3 M-74.5-42l7.5,11.3 M-77.3-40.1l7.5,11.3"/>
					</g>
				</g>
				<path fill="#231F20" d="M-28-64.9l-2.8,1.9 M-66.1-39.5l-3.3,2.2 M-72.2-35.4l-2.8,1.9"/>
			</g>
		</g>
	</g>
	<g display="inline">
		<rect x="-56.8" y="43.3" fill="#CCCCCC" width="84.8" height="52.8"/>
		<g id="b2_16_">
			<path fill="#CCCCCC" d="M-20.7,41.2h13.6 M-20.7,44.6h13.6 M-20.7,48h13.6"/>
			<g>
				<path fill="#CCCCCC" d="M-20.7,90.9h13.6 M-20.7,94.3h13.6 M-20.7,97.7h13.6"/>
			</g>
		</g>
		<line fill="#CCCCCC" x1="-13.9" y1="88.7" x2="-13.9" y2="100"/>
		<g>
			
				<ellipse transform="matrix(0.5547 -0.8321 0.8321 0.5547 -64.014 19.3472)" fill="#CCCCCC" cx="-13.9" cy="69.5" rx="13.6" ry="13.6"/>
			
				<ellipse transform="matrix(0.5547 -0.8321 0.8321 0.5547 -64.014 19.3472)" fill="#CCCCCC" cx="-13.9" cy="69.5" rx="13.6" ry="13.6"/>
		</g>
		<path fill="#CCCCCC" d="M-13.9,55.9c-3.7,0-6.8,3-6.8,6.8s3,6.8,6.8,6.8s6.8,3,6.8,6.8c0,3.7-3,6.8-6.8,6.8
			c-7.5,0-13.6-6.1-13.6-13.6C-27.5,62-21.4,55.9-13.9,55.9z"/>
		<g>
			<g transform="rotate(-123.6900675)">
				<g id="b2_15_">
					<path fill="#CCCCCC" d="M-30.3-71.4l7.5,11.3 M-33.2-69.6l7.5,11.3 M-36-67.7l7.5,11.3"/>
					<g>
						<path fill="#CCCCCC" d="M-71.7-43.9l7.5,11.3 M-74.5-42l7.5,11.3 M-77.3-40.1l7.5,11.3"/>
					</g>
				</g>
				<path fill="#CCCCCC" d="M-28-64.9l-2.8,1.9 M-66.1-39.5l-3.3,2.2 M-72.2-35.4l-2.8,1.9"/>
			</g>
		</g>
	</g>
</g>
<g id="finance" display="none">
	<path display="inline" fill="#CCCCCC" d="M52.1,81c-3.9,0-7-0.9-9.6-2.7c-0.6-0.4-0.7-1.2-0.3-1.8c0.4-0.6,1.2-0.7,1.8-0.3
		c2.1,1.5,4.7,2.2,8,2.2c3.3,0,5.9-0.7,7.9-2.2c0.6-0.4,1.4-0.3,1.8,0.3c0.4,0.6,0.3,1.4-0.3,1.8C59.1,80.1,56,81,52.1,81z"/>
	<path display="inline" fill="#CCCCCC" d="M62,81.2c-0.4-0.6-1.2-0.7-1.8-0.3c-2.4,1.7-5.4,1.9-7.9,1.9c-3.7,0-6.1-0.6-8-2
		c-0.6-0.4-1.4-0.3-1.8,0.3c-0.4,0.6-0.3,1.4,0.3,1.8c1.4,1,2.8,1.6,4.3,1.9c0.3,2.6,2.6,4.8,5.3,4.8s5-2.1,5.3-4.8
		c1.5-0.4,2.9-1,4.2-1.9C62.2,82.6,62.4,81.7,62,81.2z M52.1,87c-1.1,0-2-0.7-2.5-1.7c0.8,0.1,1.7,0.1,2.5,0.1s1.6,0,2.5-0.1
		C54.2,86.3,53.2,87,52.1,87z"/>
	<g display="inline">
		<path fill="#CCCCCC" d="M52.1,23.8c-12.2,0-20.9,9-20.9,21.4c0,7.2,3.3,11.9,6.1,15.9c2.2,3.2,4.1,5.9,4.1,9.2
			c0,4.3,7.1,6.2,10.7,6.2s10.7-1.8,10.7-6.2c0-3.3,1.9-6.1,4.1-9.2c2.8-4.1,6.1-8.7,6.1-15.9C73,32.9,64.2,23.8,52.1,23.8z
			 M41.6,36.7c-0.3,0.4-0.6,0.5-1.1,0.5c-0.3,0-0.6-0.1-0.8-0.3c-0.5-0.4-0.7-1.3-0.2-1.8c2.8-3.5,6-5.5,10-6.3
			c0.7-0.1,1.4,0.4,1.5,1.1c0.1,0.7-0.4,1.4-1.1,1.5C46.5,32.1,44,33.7,41.6,36.7z M53.4,65.3v3.2c0,0.7-0.6,1.3-1.3,1.3
			c-0.7,0-1.3-0.6-1.3-1.3v-3.2c-2.7-0.4-4.7-1.8-5.5-3c-0.4-0.6-0.3-1.4,0.4-1.8c0.6-0.4,1.4-0.3,1.8,0.4c0.4,0.5,1.5,1.5,3.3,1.8
			v-8.2c-2.7-1.2-5.7-2.9-5.7-6.6c0-3.1,2.5-5.5,5.7-6.1v-3.2c0-0.7,0.6-1.3,1.3-1.3c0.7,0,1.3,0.6,1.3,1.3v3.2
			c2.7,0.4,4.6,1.8,5.5,2.9c0.4,0.6,0.3,1.4-0.4,1.8c-0.6,0.4-1.4,0.3-1.8-0.4c-0.4-0.5-1.5-1.4-3.3-1.8v8.3
			c2.7,1.2,5.7,2.8,5.7,6.5C59.1,62.3,56.7,64.8,53.4,65.3z"/>
		<path fill="#CCCCCC" d="M47.7,47.8c0,1.8,1.1,2.7,3.1,3.7v-7C48.8,44.9,47.7,46.4,47.7,47.8z"/>
		<path fill="#CCCCCC" d="M53.4,55.6v7c1.9-0.4,3.1-1.9,3.1-3.3C56.5,57.6,55.4,56.6,53.4,55.6z"/>
	</g>
	<g display="inline">
		<path fill="#CCCCCC" d="M53.9,12.1c0-0.4-0.2-0.9-0.5-1.2c-0.6-0.7-1.8-0.7-2.5,0c-0.4,0.4-0.5,0.8-0.5,1.2s0.2,0.9,0.5,1.2
			c0.3,0.3,0.6,0.4,1,0.5c-0.9,0.1-1.5,0.9-1.5,1.8s0.7,1.7,1.6,1.8c-0.4,0-0.8,0.2-1.1,0.4c-0.4,0.4-0.5,0.8-0.5,1.2
			c0,0.4,0.2,0.9,0.5,1.2c0.4,0.4,0.8,0.5,1.2,0.5s0.9-0.2,1.2-0.5c0.4-0.4,0.5-0.8,0.5-1.2c0-0.4-0.2-1-0.5-1.2
			c-0.3-0.3-0.7-0.4-1.1-0.4c0.9-0.1,1.6-0.8,1.6-1.8c0-0.9-0.6-1.6-1.5-1.8c0.4-0.1,0.7-0.3,1-0.5C53.7,13,53.9,12.6,53.9,12.1z"/>
		<path fill="#CCCCCC" d="M36.9,21.7c0.6-0.5,0.8-1.5,0.4-2.3c-0.5-0.7-1.4-1-2.2-0.6c0,0,0.1,0,0.1-0.1c0.4-0.4,0.5-0.8,0.5-1.2
			c0-0.4-0.2-0.9-0.5-1.2c-0.7-0.6-1.8-0.6-2.5,0c-0.4,0.4-0.5,0.8-0.5,1.2c0,0.4,0.2,0.9,0.5,1.2c0.4,0.4,0.8,0.5,1.2,0.5
			c0.3,0,0.5-0.1,0.7-0.2c-0.6,0.5-0.8,1.5-0.3,2.3c0.4,0.5,0.9,0.8,1.5,0.8c0.3,0,0.5-0.1,0.8-0.2l-0.1,0.1
			c-0.4,0.4-0.5,0.8-0.5,1.2s0.2,0.9,0.5,1.2c0.4,0.4,0.8,0.5,1.2,0.5s0.9-0.2,1.2-0.5c0.4-0.4,0.5-0.8,0.5-1.2s-0.2-0.9-0.5-1.2
			C38.4,21.6,37.6,21.5,36.9,21.7z"/>
		<path fill="#CCCCCC" d="M21.6,33.7c0.4,0,0.9-0.2,1.2-0.5c0.1-0.1,0.2-0.2,0.3-0.3c-0.2,0.8,0.2,1.7,1,2c0.3,0.1,0.4,0.2,0.7,0.2
			c0.6,0,1.1-0.4,1.5-0.9c-0.1,0.2-0.1,0.4-0.1,0.5c0,0.4,0.2,1,0.5,1.2c0.4,0.4,0.8,0.5,1.2,0.5c0.4,0,0.9-0.2,1.2-0.5
			c0.4-0.4,0.5-0.8,0.5-1.2c0-0.4-0.2-0.9-0.5-1.2c-0.7-0.7-1.8-0.7-2.5,0c-0.1,0.1-0.2,0.2-0.3,0.3c0.2-0.8-0.2-1.7-1-2
			c-0.8-0.4-1.8-0.1-2.2,0.6c0-0.2,0.1-0.3,0.1-0.4c0-0.4-0.2-0.9-0.5-1.2c-0.6-0.7-1.8-0.7-2.5,0c-0.4,0.4-0.5,0.8-0.5,1.2
			c0,0.4,0.2,0.9,0.5,1.2C20.7,33.5,21.1,33.7,21.6,33.7z"/>
		<path fill="#CCCCCC" d="M27.3,50.9c0.4-0.4,0.5-0.8,0.5-1.2c0-0.4-0.2-0.9-0.5-1.2c-0.7-0.6-1.8-0.6-2.5,0
			c-0.4,0.4-0.5,0.8-0.5,1.2c-0.3-0.8-1.1-1.3-1.9-1.1s-1.5,0.9-1.5,1.8c-0.1-0.3-0.3-0.5-0.4-0.7c-0.7-0.7-1.8-0.7-2.5,0
			c-0.4,0.4-0.5,0.8-0.5,1.2c0,0.4,0.2,0.9,0.5,1.2c0.4,0.4,0.8,0.5,1.2,0.5c0.4,0,0.9-0.2,1.2-0.5c0.4-0.4,0.5-0.7,0.5-1.2
			c0.3,0.7,0.9,1.1,1.7,1.1c0.1,0,0.2,0,0.3,0c0.9-0.2,1.5-0.9,1.5-1.8c0.1,0.3,0.3,0.5,0.4,0.7c0.4,0.4,0.8,0.5,1.2,0.5
			S26.9,51.2,27.3,50.9z"/>
		<path fill="#CCCCCC" d="M31.2,62c-0.4,0.4-0.5,0.8-0.5,1.2c0,0.4,0.1,0.7,0.3,1c-0.7-0.5-1.6-0.5-2.3,0.1
			c-0.7,0.6-0.8,1.6-0.3,2.3C27.7,66,26.6,66,26,66.6c-0.4,0.4-0.5,0.8-0.5,1.2c0,0.4,0.2,0.9,0.5,1.2c0.4,0.4,0.8,0.5,1.2,0.5
			c0.4,0,0.9-0.2,1.2-0.5c0.4-0.4,0.5-0.8,0.5-1.2c0-0.4-0.1-0.7-0.3-1c0.4,0.3,0.7,0.4,1.1,0.4c0.4,0,0.8-0.2,1.1-0.4
			c0.6-0.6,0.8-1.6,0.3-2.3c0.4,0.3,0.7,0.4,1.1,0.4c0.4,0,0.9-0.2,1.2-0.5c0.4-0.4,0.5-0.8,0.5-1.2s-0.2-0.9-0.5-1.2
			C33.1,61.4,31.8,61.4,31.2,62z"/>
		<path fill="#CCCCCC" d="M69.5,19.1c0.3,0.1,0.4,0.2,0.7,0.2c0.4,0,0.9-0.2,1.2-0.5c0.4-0.4,0.5-0.8,0.5-1.2c0-0.4-0.2-0.9-0.5-1.2
			c-0.6-0.7-1.8-0.7-2.5,0c-0.4,0.4-0.5,0.8-0.5,1.2c0,0.4,0.2,0.9,0.5,1.2c0,0,0.1,0,0.1,0.1c-0.8-0.4-1.7-0.1-2.2,0.6
			c-0.5,0.7-0.4,1.8,0.4,2.3c-0.6-0.3-1.5-0.2-2,0.4c-0.4,0.4-0.5,0.8-0.5,1.2s0.2,0.9,0.5,1.2c0.4,0.4,0.8,0.5,1.2,0.5
			c0.4,0,0.9-0.2,1.2-0.5c0.4-0.4,0.5-0.8,0.5-1.2s-0.2-0.9-0.5-1.2L67.6,22c0.3,0.1,0.5,0.2,0.8,0.2c0.6,0,1.1-0.3,1.5-0.8
			C70.3,20.6,70.1,19.7,69.5,19.1z"/>
		<path fill="#CCCCCC" d="M76.2,36.4c0.4,0,0.9-0.2,1.2-0.5s0.5-0.8,0.5-1.2c0-0.2,0-0.4-0.1-0.5c0.4,0.5,0.9,0.9,1.5,0.9
			c0.3,0,0.4,0,0.7-0.2c0.8-0.4,1.2-1.2,1-2c0.1,0.1,0.2,0.2,0.2,0.3c0.4,0.4,0.8,0.5,1.2,0.5c0.4,0,0.9-0.2,1.2-0.5
			s0.5-0.8,0.5-1.2c0-0.4-0.2-0.9-0.5-1.2c-0.7-0.6-1.8-0.6-2.5,0c-0.4,0.4-0.5,0.8-0.5,1.2c0,0.2,0,0.4,0.1,0.4
			c-0.4-0.7-1.4-1.1-2.2-0.7s-1.2,1.2-1,2c-0.1-0.1-0.2-0.2-0.2-0.3c-0.7-0.7-1.8-0.7-2.5,0c-0.4,0.4-0.5,0.8-0.5,1.2
			c0,0.4,0.2,0.9,0.5,1.2C75.3,36.3,75.8,36.4,76.2,36.4z"/>
		<path fill="#CCCCCC" d="M86.3,49.5c-0.6-0.7-1.8-0.7-2.5,0c-0.2,0.2-0.4,0.4-0.4,0.7c0-0.9-0.6-1.6-1.5-1.8
			c-0.9-0.2-1.7,0.4-1.9,1.2c0-0.4-0.2-0.9-0.5-1.2c-0.7-0.6-1.8-0.6-2.5,0c-0.4,0.4-0.5,0.8-0.5,1.2c0,0.4,0.2,0.9,0.5,1.2
			c0.4,0.4,0.8,0.5,1.2,0.5s0.9-0.2,1.2-0.5c0.2-0.2,0.4-0.4,0.4-0.7c0,0.9,0.6,1.6,1.5,1.8c0.1,0,0.2,0,0.3,0
			c0.8,0,1.4-0.4,1.7-1.1c0,0.4,0.2,0.9,0.5,1.2s0.8,0.5,1.2,0.5c0.4,0,0.9-0.2,1.2-0.5s0.5-0.8,0.5-1.2
			C86.8,50.3,86.6,49.8,86.3,49.5z"/>
		<path fill="#CCCCCC" d="M75.8,66.5c0.5-0.7,0.4-1.7-0.3-2.3c-0.6-0.6-1.6-0.6-2.3-0.1c0.2-0.3,0.3-0.6,0.3-1
			c0-0.4-0.2-0.9-0.5-1.2c-0.6-0.6-1.8-0.6-2.5,0c-0.4,0.4-0.5,0.8-0.5,1.2c0,0.4,0.2,0.9,0.5,1.2s0.8,0.5,1.2,0.5
			c0.4,0,0.8-0.2,1.1-0.4c-0.4,0.7-0.4,1.7,0.3,2.3c0.4,0.3,0.8,0.4,1.1,0.4c0.4,0,0.8-0.2,1.1-0.4c-0.2,0.3-0.3,0.6-0.3,1
			c0,0.4,0.2,0.9,0.5,1.2s0.8,0.5,1.2,0.5c0.4,0,0.9-0.2,1.2-0.5s0.5-0.8,0.5-1.2c0-0.4-0.2-0.9-0.5-1.2
			C77.5,65.9,76.5,65.9,75.8,66.5z"/>
	</g>
</g>
<path id="marketing" display="none" fill="#CCCCCC" d="M19.3,69.8c-0.9-0.9-2.4-0.9-3.3,0c-0.9,0.9-0.9,2.4,0,3.3l0,0l8.5,8.4
	c0.9,1,2.4,1,3.3,0.1s1-2.4,0.1-3.3c0-0.1-0.1-0.1-0.1-0.1l-0.8-0.8l7.3-3.6l2.2,2.2c3.9,3.8,10.2,3.8,14-0.1c2.9-2.9,3.7-7.3,2-11
	l15.7-7.7l1.7,1.7c1,0.9,2.5,0.8,3.3-0.2c0.8-0.9,0.8-2.3,0-3.2L41.3,24.2c-0.9-1-2.4-1-3.3-0.1s-1,2.4-0.1,3.3
	c0,0.1,0.1,0.1,0.1,0.1l1.4,1.4L19.8,70.4L19.3,69.8z M47,72.6c-2,2-5.3,2.1-7.3,0.1l-1.1-1.1l9.5-4.6C48.9,68.9,48.5,71.1,47,72.6z
	 M26.1,68.1l15.3-32.4c0.2-0.4,0.7-0.6,1.1-0.4c0.1,0,0.2,0.1,0.2,0.1l4,3.9c0.5,0.5,0.6,1.2,0.2,1.8l-20,27.4
	c-0.1,0.2-0.3,0.2-0.5,0.1C26.1,68.5,26,68.3,26.1,68.1z M60.3,35.7c-0.1-0.3-0.1-0.7,0-1c0-0.2,0.1-0.3,0.1-0.5
	c0.1-0.2,0.1-0.3,0.2-0.4c0.2-0.3,0.4-0.5,0.7-0.7c0.1-0.1,0.3-0.2,0.4-0.2c0.2-0.1,0.3-0.1,0.5-0.2c0.2,0,0.3,0,0.5,0
	c0.2,0,0.3,0,0.5,0.1c0.2,0,0.3,0.1,0.5,0.2c0.2,0.1,0.3,0.1,0.4,0.2c0.3,0.2,0.5,0.4,0.7,0.7c0.1,0.1,0.2,0.3,0.2,0.4
	c0.1,0.2,0.1,0.3,0.2,0.5c0,0.2,0.1,0.3,0.1,0.5c0,0.7-0.3,1.3-0.7,1.8c-0.1,0.1-0.2,0.2-0.4,0.3c-0.1,0.1-0.3,0.2-0.4,0.2
	c-0.2,0.1-0.3,0.1-0.5,0.1c-0.2,0-0.3,0.1-0.5,0.1c-0.2,0-0.3,0-0.5,0c-0.2,0-0.3-0.1-0.5-0.2c-0.2-0.1-0.3-0.1-0.4-0.2
	c-0.3-0.2-0.5-0.4-0.7-0.7c-0.1-0.1-0.2-0.3-0.2-0.4C60.4,36,60.3,35.8,60.3,35.7L60.3,35.7z M70.2,31.3c-1,1-2.6,1-3.6,0
	c-1-1-1-2.6,0-3.6c1-1,2.6-1,3.5,0C71.2,28.6,71.2,30.2,70.2,31.3L70.2,31.3z M74.2,26.3c-1.4,0-2.5-1.1-2.5-2.5
	c0-0.2,0-0.3,0.1-0.5c0-0.2,0.1-0.3,0.1-0.5c0.1-0.2,0.1-0.3,0.2-0.4c0.5-0.7,1.3-1.1,2.1-1.1c1.4,0,2.5,1.1,2.5,2.5
	c0,0.7-0.3,1.3-0.7,1.8C75.5,26,74.9,26.2,74.2,26.3z M58.6,28.7c0.1,0.2,0.1,0.3,0.1,0.5c0,0.2,0,0.3,0,0.5c0,0.7-0.3,1.3-0.7,1.8
	c-0.1,0.1-0.3,0.2-0.4,0.3c-0.1,0.1-0.3,0.2-0.4,0.2c-0.2,0.1-0.3,0.1-0.5,0.2c-0.2,0-0.3,0-0.5,0c-0.2,0-0.3,0-0.5-0.1
	c-0.2,0-0.3-0.1-0.5-0.1c-0.2-0.1-0.3-0.1-0.4-0.2c-0.1-0.1-0.3-0.2-0.4-0.3c-0.1-0.1-0.2-0.2-0.3-0.4c-0.1-0.1-0.2-0.3-0.2-0.4
	c-0.1-0.2-0.1-0.3-0.2-0.5c-0.1-0.3-0.1-0.7,0-1c0-0.2,0.1-0.3,0.2-0.5c0.1-0.2,0.1-0.3,0.2-0.4c0.5-0.7,1.2-1.1,2.1-1.1
	c0.2,0,0.3,0,0.5,0c0.2,0,0.3,0.1,0.5,0.2c0.2,0.1,0.3,0.1,0.4,0.2c0.1,0.1,0.3,0.2,0.4,0.3c0.1,0.1,0.2,0.2,0.3,0.4
	C58.4,28.4,58.5,28.5,58.6,28.7L58.6,28.7z M58.5,24.6c-1.3-0.6-1.8-2.1-1.3-3.3c0.6-1.3,2.1-1.8,3.3-1.3c1.3,0.6,1.8,2.1,1.3,3.3
	c-0.1,0.3-0.3,0.5-0.5,0.7C60.6,24.8,59.5,25,58.5,24.6L58.5,24.6z M65.4,14.9c0,1.4-1.1,2.5-2.5,2.5c0,0,0,0,0,0
	c-0.2,0-0.3,0-0.5-0.1c-0.2,0-0.3-0.1-0.5-0.1c-0.2-0.1-0.3-0.1-0.4-0.2c-0.1-0.1-0.3-0.2-0.4-0.3c-0.5-0.5-0.7-1.1-0.7-1.8
	c0-1.4,1.2-2.5,2.5-2.5c0.7,0,1.3,0.3,1.8,0.7c0.1,0.1,0.2,0.2,0.3,0.4c0.1,0.1,0.2,0.3,0.2,0.4c0.1,0.2,0.1,0.3,0.1,0.5
	C65.4,14.5,65.4,14.7,65.4,14.9z M70.6,40.7c0.1,0.2,0.1,0.3,0.2,0.5c0,0.2,0,0.3,0,0.5c0,0.8-0.4,1.6-1.1,2.1
	c-0.1,0.1-0.3,0.2-0.4,0.2c-0.2,0.1-0.3,0.1-0.5,0.2c-0.3,0.1-0.7,0.1-1,0c-0.2,0-0.3-0.1-0.5-0.2c-0.2-0.1-0.3-0.1-0.4-0.2
	c-0.1-0.1-0.3-0.2-0.4-0.3c-0.1-0.1-0.2-0.2-0.3-0.4c-0.1-0.1-0.2-0.3-0.2-0.4c-0.1-0.1-0.1-0.3-0.1-0.5c0-0.2-0.1-0.3-0.1-0.5
	c0-0.2,0-0.3,0-0.5c0-0.2,0.1-0.3,0.2-0.5c0.1-0.2,0.1-0.3,0.2-0.4c0.1-0.1,0.2-0.3,0.3-0.4c0.5-0.5,1.1-0.7,1.8-0.7
	c0.2,0,0.3,0,0.5,0c0.2,0,0.3,0.1,0.5,0.1c0.2,0.1,0.3,0.1,0.4,0.2c0.1,0.1,0.3,0.2,0.4,0.3c0.1,0.1,0.2,0.3,0.3,0.4
	C70.4,40.4,70.5,40.6,70.6,40.7z M73.3,39.4c-0.4-1-0.2-2.1,0.5-2.8c0.2-0.2,0.5-0.4,0.7-0.5c1.3-0.6,2.8,0,3.3,1.3
	c0.6,1.3,0,2.8-1.3,3.3C75.4,41.2,73.9,40.7,73.3,39.4L73.3,39.4z M84.9,33.3c0.5,0.5,0.7,1.1,0.7,1.8c0,1.4-1.2,2.5-2.5,2.5
	c-0.7,0-1.3-0.3-1.8-0.7c-0.1-0.1-0.2-0.3-0.3-0.4c-0.1-0.1-0.2-0.3-0.2-0.4c-0.1-0.1-0.1-0.3-0.1-0.5c0-0.2-0.1-0.4-0.1-0.5
	c0-1.4,1.1-2.5,2.5-2.5h0c0.2,0,0.3,0,0.5,0c0.2,0,0.3,0.1,0.5,0.1c0.2,0.1,0.3,0.1,0.4,0.2C84.6,33,84.7,33.2,84.9,33.3L84.9,33.3z
	"/>
<path id="psychology" display="none" fill="#CCCCCB" d="M81.2,43.5c1.4-10.6-2.9-23.3-15.6-29c-10.1-4.5-27.8-4.5-37.2,4
	c-8.2,7.4-10,18-10,18s-0.8,3.9-0.8,5.2c0,1.2,1.4,1.7,1.2,2.4c-0.2,0.6-1.7,2.5-2.9,4.5c-1.2,2-4.3,6.5-4.3,7.7
	c0,1.2,0.7,1.6,2.2,2.1c1.4,0.5,2.6,0.9,2.8,1.4s-0.7,2.2-0.7,3.3c0,1,0.3,1.1,1,1.4c0.9,0.4,2.3,0.4,2.3,0.4s-3.1,0.6-2.8,1.9
	c0.3,1.3,2.2,1.6,2.3,2.6c0.1,0.5-1.6,3.2-1.4,5.8c0.3,3.4,3.5,4.9,8.6,4.1c4.8-0.8,7.1-1.5,7.7,1.2c0.4,1.7,0.3,4.5,1.1,7.7
	c0,0.1,0.1,0.3,0.1,0.4h37.1c-1.6-2.9-3.7-7.5-3.7-13.5c0-4.1,0.4-10.1,3.3-13.3C75.2,57.8,80,52.1,81.2,43.5z M65.8,52
	c0,0-0.5,5.3-4.4,6c-3.3,0.6-5.6-2.6-5.6-2.6l-1.1,5.2h-2.3c0,0-2.1-7.8-3.6-9.1c-1.5-1.3-3.7-1.7-3.7-1.7s-3.1-0.2-5-2.2
	c-2-2-0.1-4.4-0.1-4.4s-2.5,0.1-7.5-0.9c-5-1.1-3.5-4.3-3.5-4.3s-1.3,0.2-2.4-1.2c-0.8-1-1.3-3.4,0.1-6.2c1.3-2.5,3.5-3.4,3.5-3.4
	s-0.8-1,0.9-2.5c0.9-0.8,2.5-0.7,2.5-0.7s0.4-1.7,2.8-2.8c2.7-1.2,4.6-0.2,4.6-0.2s0.7-1.6,2.9-2.3C45.9,17.8,48,19,48,19
	s1.4-1.3,4.1-1.3c2.6,0,3.6,1.4,3.6,1.4s1.6-0.8,3.5-0.1c1.8,0.6,2.3,2.4,2.3,2.4s1.3-0.9,3.1-0.2c1.8,0.7,2.6,2.7,2.6,2.7
	s1.3-0.2,2.5,0.9c0.9,0.8,0.6,2.4,0.6,2.4s1.6,0.5,2.5,2.4c0.9,1.7-0.4,3.2-0.4,3.2s2.6,1.9,2.9,6.9c0.4,6.1-3.4,7.2-3.4,7.2
	s0.8,1.9-0.6,4C69.6,53.6,65.8,52,65.8,52z"/>
<g id="statistics" display="none">
	<polygon display="inline" fill="#CCCCCC" points="32.1,61 13.7,76.9 13.7,88.3 32.1,88.3 	"/>
	<g display="inline">
		<polygon fill="#CCCCCC" points="42.9,51.8 38.3,55.8 38.3,88.3 56.6,88.3 56.6,60.6 		"/>
		<polygon fill="#CCCCCC" points="62.8,54.2 62.8,88.3 81.1,88.3 81.1,37.8 78.7,35.6 		"/>
		<polygon fill="#CCCCCC" points="42.4,46.8 56.2,55.5 78.3,29.9 82.9,33.8 86.2,15.8 69,21.9 73.6,25.8 55,47.6 41.9,39.2 
			13.7,63.4 13.7,71.4 		"/>
	</g>
</g>
<path id="accounting" display="none" fill="#CCCCCB" d="M76.5,7.4h-53c-1.4,0-2.5,1.1-2.5,2.5v79.3c0,1.4,1.1,2.5,2.5,2.5h53
	c1.4,0,2.5-1.1,2.5-2.5V9.9C79,8.5,77.9,7.4,76.5,7.4z M52.6,11.3c8.6,0,15.6,7,15.6,15.6H52.6V11.3z M50,14v15.6h15.6
	c0,8.6-7,15.6-15.6,15.6c-8.6,0-15.6-7-15.6-15.6C34.4,21,41.4,14,50,14L50,14z M35.2,83.3V87h-2.7v-3.5c-3.8-0.4-6-2.1-7.8-5.4
	l3.3-3.1c1,2,2.7,3.9,5.2,3.9c1.9,0,3.5-1.5,3.6-3.5c0-0.1,0-0.1,0-0.2c0-2.5-2.6-3.4-5.2-4.6c-2.6-1.2-5.2-2.9-5.2-7.1
	c0-4.1,2.3-7.1,6.3-7.8v-3.4h2.7v3.4c2.3,0.2,4.4,1.3,5.8,3.1l-2.5,3.5c-0.9-1.3-2.4-2.2-4.1-2.2c-1.6,0-3,1.3-3.1,2.9
	c0,2.2,2.6,3,5.2,4.3s5.2,3.1,5.2,7.4C41.9,78.9,39.4,82.4,35.2,83.3z M74,87H48.2c-1,0-1.8-0.8-1.8-1.8c0-1,0.8-1.8,1.8-1.8H74
	c1,0,1.8,0.8,1.8,1.8C75.8,86.2,75,87,74,87L74,87z M74,79.1H48.2c-1,0-1.8-0.8-1.8-1.8c0-1,0.8-1.8,1.8-1.8H74c1,0,1.8,0.8,1.8,1.8
	C75.8,78.3,75,79.1,74,79.1L74,79.1z M74,71.3H48.2c-1,0-1.8-0.8-1.8-1.8c0-1,0.8-1.8,1.8-1.8H74c1,0,1.8,0.8,1.8,1.8
	C75.8,70.5,75,71.3,74,71.3L74,71.3z M74,63.4H48.2c-1,0-1.8-0.8-1.8-1.8c0-1,0.8-1.8,1.8-1.8H74c1,0,1.8,0.8,1.8,1.8
	C75.8,62.6,75,63.4,74,63.4L74,63.4z M74,55.5H48.2c-1,0-1.8-0.8-1.8-1.8s0.8-1.8,1.8-1.8H74c1,0,1.8,0.8,1.8,1.8
	C75.8,54.7,75,55.5,74,55.5L74,55.5z"/>
<path id="chemistry" display="none" fill="#CCCCCC" d="M86.5,84.5L62.6,51.7v-32c0-5.7-4.2-6.1-5.4-6.2H44.3c-4.5,0-5.4,2.5-5.5,4
	v2.2v32L14.6,84.9l0,0l-1.8,2.4c-1.2,2.2-1.5,5.3,5.4,5.3h65.5C92.5,92.6,86.5,84.5,86.5,84.5z M44.9,20.7v-1h11.5v1V32H44.9V20.7z
	 M50.7,57.9c0-0.7,0.5-1.2,1.2-1.2h6.3l1.8,2.4h-8.1C51.2,59.1,50.7,58.6,50.7,57.9z M57.5,68c0-0.7,0.6-1.2,1.2-1.2h6.7l1.8,2.4
	h-8.5C58.1,69.2,57.5,68.6,57.5,68z M65.7,77.9c0-0.7,0.5-1.2,1.2-1.2h5.8l1.8,2.5h-7.5C66.2,79.2,65.7,78.6,65.7,77.9z M79.6,86.4
	l0.1,0.1l0,0l-0.5-0.1H79.6z"/>
<path id="math" display="none" fill="#CCCCCB" d="M73.8,10.9H23.6c-3.4,0-6.2,2.8-6.2,6.2v70c0,3.4,2.8,6.2,6.2,6.2h50.2
	c3.4,0,6.2-2.8,6.2-6.2v-70C79.9,13.7,77.2,10.9,73.8,10.9z M36.7,84.6H26.1v-8.8h10.6V84.6z M36.7,68.7H26.1v-8.8h10.6V68.7z
	 M36.7,52.8H26.1V44h10.6V52.8z M54,84.6H43.4v-8.8H54V84.6z M54,68.7H43.4v-8.8H54V68.7z M54,52.8H43.4V44H54V52.8z M71.2,84.6
	H60.6V59.9h10.6V84.6z M71.2,52.8H60.6V44h10.6V52.8z M71.2,36.1H26.1V20.4h45.1V36.1z"/>
<g id="organic_chem" display="none">
	<polygon display="inline" fill="#CCCCCB" points="40.3,30 17,30 5.4,50.2 17,70.5 40.3,70.5 52,50.2 	"/>
	<polygon display="inline" fill="#CCCCCB" points="78,48.9 89.7,28.7 78,8.5 54.7,8.5 43.1,28.7 54.7,48.9 	"/>
	<polygon display="inline" fill="#CCCCCB" points="54.7,51.6 43.1,71.8 54.7,92 78,92 89.7,71.8 78,51.6 	"/>
</g>
<path id="anatomy" display="none" fill="#CCCCCB" d="M84.7,24.3L84.7,24.3c-8.9-8.9-23.5-8.9-32.4,0l-1.1,1.1
	c-0.7,0.7-1.7,0.7-2.4,0l-1.1-1.1c-8.9-8.9-23.5-8.9-32.4,0l0,0c-8.9,8.9-8.9,23.5,0,32.4l33.5,33.6c0.7,0.7,1.7,0.7,2.4,0
	l33.5-33.6C93.6,47.9,93.6,33.3,84.7,24.3z M84.2,50.7H68.9c-1,0-1.8-0.6-2.1-1.6l-4.3-13.6l-9.7,26.9c-0.3,0.9-1.1,1.5-2,1.5
	l-0.1,0c-0.9,0-1.7-0.5-2.1-1.4l-9.9-23.9L34,49.2c-0.4,0.8-1.2,1.3-2,1.3H15.8c-1.2,0-2.2-1-2.2-2.2c0-1.2,1-2.2,2.2-2.2h14.7
	l6.3-14c0.4-0.8,1.2-1.3,2.1-1.3c0.9,0,1.7,0.6,2,1.4l9.7,23.4l10-27.7c0.3-0.9,1.2-1.5,2.1-1.5c1,0,1.8,0.6,2.1,1.6l5.8,18.4h13.6
	c1.2,0,2.2,1,2.2,2.2C86.4,49.7,85.4,50.7,84.2,50.7z"/>
<path id="physics" sketch:type="MSShapeGroup" display="none" fill="#CCCCCC" d="M80.2,56.6c-7.7,0-13.9-6.3-13.9-13.9
	c0-7.7,6.3-13.9,13.9-13.9c7.7,0,13.9,6.3,13.9,13.9C94.1,50.3,87.9,56.6,80.2,56.6L80.2,56.6z M53.7,62.2c-1.8-1.8-1.8-4.8,0-6.6
	c1.8-1.8,4.8-1.8,6.6,0c1.8,1.8,1.8,4.8,0,6.6c-0.9,0.9-2.1,1.3-3.3,1.3C55.8,63.5,54.6,63.1,53.7,62.2L53.7,62.2z M39.7,76.1
	c-1.8-1.8-1.8-4.8,0-6.6c1.8-1.8,4.8-1.8,6.6,0c1.8,1.8,1.8,4.8,0,6.6c-0.9,0.9-2.1,1.3-3.3,1.3C41.8,77.5,40.6,77,39.7,76.1
	L39.7,76.1z M21.2,48.2c-1.8-1.8-1.8-4.8,0-6.6c1.8-1.8,4.8-1.8,6.6,0c1.8,1.8,1.8,4.8,0,6.6c-0.9,0.9-2.1,1.3-3.3,1.3
	C23.3,49.6,22.1,49.2,21.2,48.2L21.2,48.2z M30.5,62.2c-1.8-1.8-1.8-4.8,0-6.6c1.8-1.8,4.8-1.8,6.6,0c1.8,1.8,1.8,4.8,0,6.6
	c-0.9,0.9-2.1,1.3-3.3,1.3C32.5,63.5,31.3,63.1,30.5,62.2L30.5,62.2z M7.2,34.3c-1.8-1.8-1.8-4.8,0-6.6c1.8-1.8,4.8-1.8,6.6,0
	c1.8,1.8,1.8,4.8,0,6.6c-0.9,0.9-2.1,1.3-3.3,1.3C9.3,35.7,8.1,35.2,7.2,34.3L7.2,34.3z"/>
<g id="biology" display="none">
	<path display="inline" fill="#CCCCCC" d="M64.6,41.3c-1.7,0-3.2,1.4-3.2,3.2v5v1.3c0,2.8-1,5.4-2.5,7.5c-0.2,0.3-0.5,0.6-0.8,0.9
		c-0.3,0.3-0.6,0.6-0.9,0.9c-0.3,0.3-0.6,0.5-0.9,0.8c-2.1,1.6-4.7,2.5-7.5,2.5h-1.3h-5H20.3c-4.1,0-8.1,1.3-11.4,3.8
		c-1.4,1-1.7,3-0.6,4.4c0.6,0.8,1.6,1.3,2.5,1.3c1,0,2-0.5,2.7-1.5c0.3-0.1,0.4-0.1,0.7-0.1l14,14c-0.1,0.3-0.1,0.4-0.1,0.7
		c-2,1.3-1.9,4-0.2,5.2c0.6,0.4,1.2,0.6,1.9,0.6c1,0,1.9-0.4,2.5-1.3c2.5-3.3,3.8-7.2,3.8-11.4v-3.2c0-1.7-1.4-3.2-3.2-3.2
		c-1.7,0-3.2,1.4-3.2,3.2V78l-8.2-8.2h27.1c5.2,0,10-2.1,13.4-5.6s5.6-8.2,5.6-13.4v-6.3C67.7,42.8,66.3,41.3,64.6,41.3z"/>
	<path display="inline" fill="#CCCCCC" d="M89.2,30c-1-1.4-3-1.7-4.4-0.6c-0.5,0.4-1.1,0.8-1.7,1.1L69.3,16.4
		c0.1-0.3,0.1-0.4,0.1-0.7c2-1.3,1.9-4,0.2-5.2c-1.4-1-3.4-0.8-4.4,0.6c-2.5,3.3-3.8,7.2-3.8,11.4v3.2c0,1.7,1.4,3.2,3.2,3.2
		c1.7,0,3.2-1.4,3.2-3.2v-1.8l7.9,8.1H48.8c-5.2,0-10,2.1-13.4,5.6s-5.6,8.2-5.6,13.4v6.3c0,1.7,1.4,3.2,3.2,3.2
		c1.7,0,3.2-1.4,3.2-3.2v-5l6.3,6.3c1.2,1.2,2.8,1.9,4.5,1.9h1.9c1.3,0,2.6-0.3,3.7-0.8L37.7,44.8c0.6-1.1,1.3-2.1,2.1-2.9
		c0.9-0.8,1.8-1.5,2.9-2.1l14.8,14.8c0.5-1.1,0.8-2.4,0.8-3.7V49c0-1.7-0.7-3.3-1.9-4.5l-6.3-6.3h27.1c4.1,0,8.1-1.3,11.4-3.8
		C90,33.4,90.3,31.4,89.2,30z"/>
</g>
<path id="geology" display="none" fill="#CCCCCC" d="M93.5,71.4l-0.8-25.2c0-0.3-0.1-0.6-0.3-0.8l-21-29.9c0,0,0,0,0,0
	c-0.1-0.1-0.1-0.2-0.2-0.2c0,0,0,0-0.1,0c-0.1-0.1-0.1-0.1-0.2-0.1c0,0-0.1,0-0.1-0.1c-0.1,0-0.1,0-0.2-0.1c0,0-0.1,0-0.1,0
	c0,0,0,0,0,0l-24-3.5c-0.2,0-0.3,0-0.5,0c-0.1,0-0.1,0-0.2,0.1c-0.1,0-0.2,0.1-0.3,0.1c0,0,0,0,0,0L38,16c-0.3,0.2-0.6,0.5-0.7,0.9
	l-5,17.4l-12.3-2.5c0,0,0,0-0.1,0c0,0-0.1,0-0.1,0c-0.1,0-0.1,0-0.2,0c0,0-0.1,0-0.1,0c0,0-0.1,0-0.1,0c0,0-0.1,0-0.1,0
	c0,0-0.1,0-0.1,0c0,0-0.1,0-0.1,0.1c0,0-0.1,0-0.1,0.1c0,0-0.1,0.1-0.1,0.1c0,0-0.1,0.1-0.1,0.1c0,0-0.1,0.1-0.1,0.1
	c0,0-0.1,0.1-0.1,0.1c0,0,0,0,0,0.1l-7.7,11.7c-0.1,0.2-0.2,0.4-0.2,0.6l-1.2,8.8c0,0,0,0,0,0.1c0,0.1,0,0.2,0,0.2c0,0,0,0.1,0,0.1
	c0,0.1,0,0.2,0.1,0.2c0,0,0,0.1,0,0.1c0,0.1,0.1,0.2,0.2,0.3c0,0,0,0,0,0c0,0,0,0,0,0l28.2,37.2c0.3,0.4,0.7,0.6,1.2,0.6
	c0.1,0,0.1,0,0.2,0l8.9-1.1c0.4-0.1,0.8-0.3,1-0.6l4.4-6.6l11.2,7c0.2,0.1,0.5,0.2,0.8,0.2c0,0,0.1,0,0.1,0l9.1-0.6
	c0.1,0,0.2,0,0.3-0.1c0,0,0.1,0,0.1,0l0,0c0.1,0,0.3-0.1,0.4-0.2c0,0,0,0,0.1-0.1c0.1-0.1,0.2-0.1,0.2-0.2c0,0,0.1-0.1,0.1-0.1
	c0-0.1,0.1-0.1,0.1-0.2c0,0,0,0,0,0c0-0.1,0-0.1,0-0.2c0-0.1,0-0.2,0.1-0.3c0,0,0,0,0-0.1l0.9-19.4c0-0.3-0.1-0.7-0.3-0.9L52.7,35.3
	c0,0,0,0,0,0c0,0-0.1-0.1-0.1-0.1c-0.1-0.1-0.1-0.1-0.2-0.2c0,0-0.1-0.1-0.1-0.1c-0.1,0-0.1-0.1-0.2-0.1c0,0-0.1,0-0.1,0
	c-0.1,0-0.2,0-0.2-0.1c0,0-0.1,0-0.1,0l-6.1-0.5l2.7-2.1l5.1,0.6l24,33.9c0.2,0.2,0.4,0.4,0.6,0.5l13.3,6.1c0.2,0.1,0.4,0.1,0.6,0.1
	c0,0,0,0,0,0c0.8,0,1.5-0.7,1.5-1.5C93.5,71.6,93.5,71.5,93.5,71.4z M39.9,18.3l5.9-3.5l0.6,0.7l2.3,2.5l-2.1,11.7l-5.7,4.5
	l-4.1,2.4L35,35.4h0l0,0L39.9,18.3z M27.2,46.8l1.6-8.1l5.1-0.5l0.8,0.5l-6.6,9.2L27.2,46.8z M20.1,35.2l5.8,3l-1.5,8l-5.8,2.5
	l-6.1,2.6l0.8-5.8L20.1,35.2z M47,88.4l-7.4,0.9L13,54.3l11.6-5l0.6-0.3l1.7,2.3c0,0,0,0,0,0c0,0,0,0,0,0L51.2,82L47,88.4z
	 M65.8,88.2L54,80.8L30.9,51.5l10.5-1.4l30.1,37.7L65.8,88.2z M41.3,47.2l-10,1.3l6.5-9l4.3-2.5l6.7,0.5L41.3,47.2z"/>
<path id="foriegn_languages" display="none" fill="#CCCCCB" d="M94.4,53.7c0-10.6-7.1-20.2-18.6-24.9c-0.7-0.3-1.5-0.1-2,0.4
	c-0.5,0.5-0.7,1.4-0.4,2c1.7,3.7,2.5,7.5,2.5,11.3c0,15.5-13.7,28.9-31.8,31.1c-0.8,0.1-1.5,0.7-1.6,1.5c-0.1,0.8,0.2,1.6,1,2
	c9.4,4.9,21.3,5.6,31.3,1.8l9.4,5.9c0.3,0.2,0.6,0.3,1,0.3c0.4,0,0.9-0.2,1.2-0.5c0.6-0.6,0.8-1.5,0.4-2.2l-3.9-7.8
	C90.2,69.4,94.4,61.8,94.4,53.7z M72.2,42.6c0-15.3-14.9-27.7-33.3-27.7S5.6,27.3,5.6,42.6c0,8.1,4.2,15.7,11.5,20.9l-3.9,7.8
	c-0.4,0.7-0.2,1.6,0.4,2.2c0.4,0.3,0.8,0.5,1.2,0.5c0.3,0,0.7-0.1,1-0.3l9.4-5.9c4.3,1.6,8.9,2.5,13.7,2.5
	C57.3,70.3,72.2,57.9,72.2,42.6z"/>
</svg>
