<?xml version="1.0" encoding="utf-8"?>
<!-- Generator: Adobe Illustrator 20.1.0, SVG Export Plug-In . SVG Version: 6.00 Build 0)  -->
<svg version="1.1" id="Layer_1" xmlns="http://www.w3.org/2000/svg" xmlns:xlink="http://www.w3.org/1999/xlink" x="0px" y="0px"
	 viewBox="0 0 100 100" enable-background="new 0 0 100 100" xml:space="preserve">
<g>
	<g>
		<path d="M86.2,10.9H11.5V72h29.1L26.1,86.6c-1.3,1.3-1.3,3.5,0,4.8c0.7,0.7,1.5,1,2.4,1c0.9,0,1.7-0.3,2.4-1l14.6-14.6V89
			c0,1.9,1.5,3.4,3.4,3.4c1.9,0,3.4-1.5,3.4-3.4V76.8l14.6,14.6c0.7,0.7,1.5,1,2.4,1c0.9,0,1.7-0.3,2.4-1c1.3-1.3,1.3-3.5,0-4.8
			L57,72h29.1V10.9z M72.6,44.9c0,1.9-1.5,3.4-3.4,3.4s-3.4-1.5-3.4-3.4v-6.3L51,50.9c-0.2,0.2-0.4,0.2-0.6,0.3
			c-0.1,0.1-0.2,0.2-0.4,0.2c-0.4,0.1-0.8,0.2-1.2,0.2c0,0,0,0,0,0c-0.5,0-0.9-0.1-1.3-0.3c-0.1-0.1-0.3-0.2-0.4-0.3
			c-0.2-0.1-0.5-0.2-0.7-0.4l-7.8-7.8l-7.8,7.8c-0.7,0.7-1.5,1-2.4,1c-0.9,0-1.7-0.3-2.4-1c-1.3-1.3-1.3-3.5,0-4.8l10.2-10.2
			c1.3-1.3,3.5-1.3,4.8,0l8,8l10.8-9h-4.2c-1.9,0-3.4-1.5-3.4-3.4c0-1.9,1.5-3.4,3.4-3.4h13.6c0.1,0,0.1,0,0.1,0
			c0.2,0,0.5,0.1,0.7,0.1c0.2,0.1,0.4,0.1,0.6,0.2c0.2,0.1,0.3,0.2,0.5,0.3c0.2,0.1,0.4,0.3,0.5,0.4c0,0,0.1,0.1,0.1,0.1
			c0.1,0.1,0.1,0.3,0.2,0.4c0.1,0.2,0.3,0.4,0.3,0.6c0.1,0.2,0.1,0.5,0.1,0.7c0,0.2,0.1,0.3,0.1,0.4L72.6,44.9L72.6,44.9z"/>
	</g>
</g>
</svg>
