<?xml version="1.0" encoding="utf-8"?>
<!-- Generator: Adobe Illustrator 20.1.0, SVG Export Plug-In . SVG Version: 6.00 Build 0)  -->
<svg version="1.1" id="Layer_1" xmlns="http://www.w3.org/2000/svg" xmlns:xlink="http://www.w3.org/1999/xlink" x="0px" y="0px"
	 viewBox="0 0 100 100" enable-background="new 0 0 100 100" xml:space="preserve">
<path d="M43.8,9.8H13.1c-1.7,0-3.1,1.4-3.1,3.1v49.2c0,1.7,1.4,3.1,3.1,3.1h16.2l-6.9,20.6c-0.5,1.6,0.3,3.4,1.9,3.9
	c0.3,0.1,0.7,0.2,1,0.2c1.3,0,2.5-0.8,2.9-2.1l7.5-22.5h11.1v24.6c0,1.7,1.4,3.1,3.1,3.1s3.1-1.4,3.1-3.1V65.2h11.1l7.5,22.5
	c0.4,1.3,1.6,2.1,2.9,2.1c0.3,0,0.7-0.1,1-0.2c1.6-0.5,2.5-2.3,1.9-3.9l-6.9-20.6h16.2c1.7,0,3.1-1.4,3.1-3.1V12.9
	c0-1.7-1.4-3.1-3.1-3.1H56.2 M28.5,52.9c-6.8,0-12.3-5.5-12.3-12.3s5.5-12.3,12.3-12.3v12.3h12.3C40.8,47.4,35.3,52.9,28.5,52.9z
	 M34.6,34.4V22.1c6.8,0,12.3,5.5,12.3,12.3L34.6,34.4L34.6,34.4z M71.5,52.9H53.1v-6.2h18.5V52.9z M83.8,40.6H53.1v-6.2h30.8
	L83.8,40.6L83.8,40.6z M83.8,28.3H53.1v-6.2h30.8L83.8,28.3L83.8,28.3z"/>
</svg>
