<?xml version="1.0" encoding="utf-8"?>
<!-- Generator: Adobe Illustrator 20.1.0, SVG Export Plug-In . SVG Version: 6.00 Build 0)  -->
<svg version="1.1" id="Layer_1" xmlns="http://www.w3.org/2000/svg" xmlns:xlink="http://www.w3.org/1999/xlink" x="0px" y="0px"
	 viewBox="0 0 100 100" enable-background="new 0 0 100 100" xml:space="preserve">
<path id="marketing" fill="#CCCCCC" d="M16.3,74.9c-1-1-2.6-1-3.6,0s-1,2.6,0,3.6l0,0l9.2,9.1c1,1,2.6,1.1,3.6,0.1s1.1-2.6,0.1-3.6
	c-0.1-0.1-0.1-0.1-0.2-0.2l-0.9-0.9l7.9-3.9l2.4,2.4c4.2,4.2,11.1,4.1,15.3-0.1c3.1-3.2,4-8,2.2-12l17.1-8.4l1.9,1.9
	c1.1,1,2.7,0.9,3.6-0.2c0.9-1,0.9-2.5,0-3.5L40.3,25.1c-1-1-2.6-1.1-3.6-0.1c-1,1-1.1,2.6-0.1,3.6c0.1,0.1,0.1,0.1,0.2,0.2l1.6,1.6
	L16.9,75.5L16.3,74.9z M46.5,78c-2.2,2.2-5.8,2.2-8,0.1l-1.2-1.2l10.4-5.1C48.6,73.9,48.1,76.3,46.5,78z M23.7,73l16.7-35.3
	c0.2-0.4,0.7-0.6,1.2-0.4c0.1,0,0.2,0.1,0.2,0.2l4.3,4.3c0.5,0.5,0.6,1.3,0.2,1.9L24.5,73.4c-0.1,0.2-0.4,0.3-0.6,0.2
	C23.7,73.5,23.6,73.2,23.7,73z M60.9,37.7c-0.1-0.4-0.1-0.7,0-1.1c0-0.2,0.1-0.3,0.2-0.5c0.1-0.2,0.2-0.3,0.3-0.5
	c0.2-0.3,0.5-0.6,0.8-0.8c0.1-0.1,0.3-0.2,0.5-0.3c0.2-0.1,0.3-0.1,0.5-0.2c0.2,0,0.4,0,0.5,0c0.2,0,0.4,0,0.5,0.1
	c0.2,0,0.4,0.1,0.5,0.2c0.2,0.1,0.3,0.2,0.5,0.3c0.3,0.2,0.6,0.5,0.8,0.8c0.1,0.1,0.2,0.3,0.3,0.5c0.1,0.2,0.1,0.3,0.2,0.5
	c0,0.2,0.1,0.4,0.1,0.5c0,0.7-0.3,1.4-0.8,1.9c-0.1,0.1-0.3,0.2-0.4,0.3c-0.2,0.1-0.3,0.2-0.5,0.3c-0.2,0.1-0.3,0.1-0.5,0.1
	c-0.2,0-0.4,0.1-0.5,0.1c-0.2,0-0.4,0-0.5,0c-0.2,0-0.3-0.1-0.5-0.2c-0.2-0.1-0.3-0.2-0.5-0.3c-0.3-0.2-0.6-0.5-0.8-0.8
	c-0.1-0.1-0.2-0.3-0.3-0.5C61.1,38,61,37.8,60.9,37.7L60.9,37.7z M71.8,32.8c-1.1,1.1-2.8,1.1-3.9,0c-1.1-1.1-1.1-2.8,0-3.9
	c1.1-1.1,2.8-1.1,3.9,0C72.9,30,72.9,31.7,71.8,32.8L71.8,32.8z M76.1,27.4c-1.5,0-2.8-1.2-2.8-2.8c0-0.2,0-0.4,0.1-0.5
	c0-0.2,0.1-0.3,0.2-0.5c0.1-0.2,0.2-0.3,0.3-0.5c0.5-0.8,1.4-1.2,2.3-1.2c1.5,0,2.8,1.2,2.8,2.8c0,0.7-0.3,1.4-0.8,2
	C77.6,27.1,76.9,27.4,76.1,27.4z M59.1,30c0.1,0.2,0.1,0.3,0.2,0.5c0,0.2,0,0.4,0,0.5c0,0.7-0.3,1.4-0.8,1.9
	c-0.1,0.1-0.3,0.2-0.4,0.3c-0.1,0.1-0.3,0.2-0.5,0.3c-0.2,0.1-0.3,0.1-0.5,0.2c-0.2,0-0.4,0-0.5,0c-0.2,0-0.4,0-0.5-0.1
	c-0.2,0-0.3-0.1-0.5-0.2c-0.2-0.1-0.3-0.2-0.5-0.3c-0.2-0.1-0.3-0.2-0.4-0.3c-0.1-0.1-0.2-0.3-0.3-0.4c-0.1-0.1-0.2-0.3-0.3-0.5
	c-0.1-0.2-0.1-0.3-0.2-0.5c-0.1-0.4-0.1-0.7,0-1.1c0-0.2,0.1-0.4,0.2-0.5c0.1-0.2,0.2-0.3,0.3-0.5c0.5-0.8,1.4-1.2,2.3-1.2
	c0.2,0,0.4,0,0.5,0c0.2,0,0.3,0.1,0.5,0.2c0.2,0.1,0.3,0.2,0.5,0.3c0.2,0.1,0.3,0.2,0.4,0.3c0.1,0.1,0.2,0.3,0.3,0.4
	C58.9,29.7,59,29.9,59.1,30L59.1,30z M59,25.5c-1.4-0.6-2-2.3-1.4-3.6s2.3-2,3.6-1.4c1.4,0.6,2,2.3,1.4,3.6
	c-0.1,0.3-0.3,0.6-0.6,0.8C61.3,25.8,60.1,26,59,25.5L59,25.5z M66.5,15c0,1.5-1.2,2.8-2.7,2.8c0,0,0,0,0,0c-0.2,0-0.4,0-0.5-0.1
	c-0.2,0-0.3-0.1-0.5-0.2c-0.2-0.1-0.3-0.2-0.5-0.3c-0.2-0.1-0.3-0.2-0.4-0.3C61.3,16.4,61,15.7,61,15c0.1-1.5,1.3-2.7,2.8-2.8
	c0.7,0,1.4,0.3,2,0.8c0.1,0.1,0.2,0.3,0.3,0.4c0.1,0.2,0.2,0.3,0.3,0.5c0.1,0.2,0.1,0.3,0.2,0.5C66.5,14.6,66.5,14.8,66.5,15z
	 M72.2,43.2c0.1,0.2,0.1,0.3,0.2,0.5c0,0.2,0,0.4,0,0.5c0,0.9-0.5,1.8-1.2,2.3c-0.1,0.1-0.3,0.2-0.5,0.3c-0.2,0.1-0.3,0.1-0.5,0.2
	c-0.4,0.1-0.7,0.1-1.1,0c-0.2,0-0.4-0.1-0.5-0.2c-0.2-0.1-0.3-0.2-0.5-0.3c-0.2-0.1-0.3-0.2-0.4-0.3c-0.1-0.1-0.2-0.3-0.3-0.4
	c-0.1-0.2-0.2-0.3-0.3-0.5C67,45.1,67,44.9,67,44.8c0-0.2-0.1-0.4-0.1-0.5c0-0.2,0-0.4,0-0.5c0-0.2,0.1-0.3,0.2-0.5
	c0.1-0.2,0.2-0.3,0.3-0.5c0.1-0.2,0.2-0.3,0.3-0.4c0.5-0.5,1.2-0.8,1.9-0.8c0.2,0,0.4,0,0.5,0c0.2,0,0.3,0.1,0.5,0.2
	c0.2,0.1,0.3,0.2,0.5,0.3c0.1,0.1,0.3,0.2,0.4,0.3c0.1,0.1,0.2,0.3,0.3,0.4C72,42.8,72.1,43,72.2,43.2z M75.2,41.7
	c-0.5-1-0.2-2.3,0.6-3.1c0.2-0.2,0.5-0.4,0.8-0.6c1.4-0.6,3,0,3.6,1.4c0.6,1.4,0,3-1.4,3.6C77.4,43.7,75.8,43.1,75.2,41.7L75.2,41.7
	z M87.8,35c0.5,0.5,0.8,1.2,0.8,2c-0.1,1.5-1.3,2.7-2.8,2.8c-0.7,0-1.4-0.3-1.9-0.8c-0.1-0.1-0.2-0.3-0.3-0.4
	c-0.1-0.2-0.2-0.3-0.3-0.5c-0.1-0.2-0.1-0.3-0.2-0.5c0-0.2-0.1-0.4-0.1-0.6c0-1.5,1.2-2.8,2.7-2.8h0c0.2,0,0.4,0,0.5,0
	c0.2,0,0.3,0.1,0.5,0.2c0.2,0.1,0.3,0.2,0.5,0.3C87.5,34.8,87.6,34.9,87.8,35L87.8,35z"/>
</svg>
