<?xml version="1.0" encoding="utf-8"?>
<!-- Generator: Adobe Illustrator 20.1.0, SVG Export Plug-In . SVG Version: 6.00 Build 0)  -->
<svg version="1.1" id="Layer_1" xmlns="http://www.w3.org/2000/svg" xmlns:xlink="http://www.w3.org/1999/xlink" x="0px" y="0px"
	 viewBox="0 0 100 100" enable-background="new 0 0 100 100" xml:space="preserve">
<path id="math" fill="#CCCCCB" d="M75.5,8.8H25.3c-3.4,0-6.2,2.8-6.2,6.2v70c0,3.4,2.8,6.2,6.2,6.2h50.2c3.4,0,6.2-2.8,6.2-6.2V15
	C81.6,11.6,78.9,8.8,75.5,8.8z M38.4,82.5H27.8v-8.8h10.6V82.5z M38.4,66.7H27.8v-8.8h10.6V66.7z M38.4,50.8H27.8V42h10.6V50.8z
	 M55.7,82.5H45.1v-8.8h10.6V82.5z M55.7,66.7H45.1v-8.8h10.6V66.7z M55.7,50.8H45.1V42h10.6V50.8z M72.9,82.5H62.3V57.9h10.6V82.5z
	 M72.9,50.8H62.3V42h10.6V50.8z M72.9,34H27.8V18.4h45.1V34z"/>
</svg>
