<?xml version="1.0" encoding="utf-8"?>
<!-- Generator: Adobe Illustrator 20.1.0, SVG Export Plug-In . SVG Version: 6.00 Build 0)  -->
<svg version="1.1" id="Layer_1" xmlns="http://www.w3.org/2000/svg" xmlns:xlink="http://www.w3.org/1999/xlink" x="0px" y="0px"
	 viewBox="0 0 100 100" enable-background="new 0 0 100 100" xml:space="preserve">
<path id="physics" sketch:type="MSShapeGroup" fill="#CCCCCC" d="M80.2,66.6c-7.7,0-13.9-6.3-13.9-13.9c0-7.7,6.3-13.9,13.9-13.9
	c7.7,0,13.9,6.3,13.9,13.9C94.1,60.3,87.9,66.6,80.2,66.6L80.2,66.6z M53.7,72.2c-1.8-1.8-1.8-4.8,0-6.6c1.8-1.8,4.8-1.8,6.6,0
	c1.8,1.8,1.8,4.8,0,6.6c-0.9,0.9-2.1,1.3-3.3,1.3C55.8,73.5,54.6,73.1,53.7,72.2L53.7,72.2z M39.7,86.1c-1.8-1.8-1.8-4.8,0-6.6
	c1.8-1.8,4.8-1.8,6.6,0c1.8,1.8,1.8,4.8,0,6.6c-0.9,0.9-2.1,1.3-3.3,1.3C41.8,87.5,40.6,87,39.7,86.1L39.7,86.1z M21.2,58.2
	c-1.8-1.8-1.8-4.8,0-6.6c1.8-1.8,4.8-1.8,6.6,0c1.8,1.8,1.8,4.8,0,6.6c-0.9,0.9-2.1,1.3-3.3,1.3C23.3,59.6,22.1,59.2,21.2,58.2
	L21.2,58.2z M30.5,72.2c-1.8-1.8-1.8-4.8,0-6.6c1.8-1.8,4.8-1.8,6.6,0c1.8,1.8,1.8,4.8,0,6.6c-0.9,0.9-2.1,1.3-3.3,1.3
	C32.5,73.5,31.3,73.1,30.5,72.2L30.5,72.2z M7.2,44.3c-1.8-1.8-1.8-4.8,0-6.6c1.8-1.8,4.8-1.8,6.6,0c1.8,1.8,1.8,4.8,0,6.6
	c-0.9,0.9-2.1,1.3-3.3,1.3C9.3,45.7,8.1,45.2,7.2,44.3L7.2,44.3z"/>
</svg>
