<?xml version="1.0" encoding="utf-8"?>
<!-- Generator: Adobe Illustrator 20.1.0, SVG Export Plug-In . SVG Version: 6.00 Build 0)  -->
<svg version="1.1" id="Layer_1" xmlns="http://www.w3.org/2000/svg" xmlns:xlink="http://www.w3.org/1999/xlink" x="0px" y="0px"
	 viewBox="0 0 100 100" enable-background="new 0 0 100 100" xml:space="preserve">
<path id="psychology" fill="#CCCCCB" d="M83.2,46.5c1.4-10.6-2.9-23.3-15.6-29c-10.1-4.5-27.8-4.5-37.2,4c-8.2,7.4-10,18-10,18
	s-0.8,3.9-0.8,5.2c0,1.2,1.4,1.7,1.2,2.4c-0.2,0.6-1.7,2.5-2.9,4.5c-1.2,2-4.3,6.5-4.3,7.7c0,1.2,0.7,1.6,2.2,2.1
	c1.4,0.5,2.6,0.9,2.8,1.4s-0.7,2.2-0.7,3.3c0,1,0.3,1.1,1,1.4c0.9,0.4,2.3,0.4,2.3,0.4s-3.1,0.6-2.8,1.9c0.3,1.3,2.2,1.6,2.3,2.6
	c0.1,0.5-1.6,3.2-1.4,5.8c0.3,3.4,3.5,4.9,8.6,4.1c4.8-0.8,7.1-1.5,7.7,1.2c0.4,1.7,0.3,4.5,1.1,7.7c0,0.1,0.1,0.3,0.1,0.4h37.1
	c-1.6-2.9-3.7-7.5-3.7-13.5c0-4.1,0.4-10.1,3.3-13.3C77.2,60.8,82,55.1,83.2,46.5z M67.8,55c0,0-0.5,5.3-4.4,6
	c-3.3,0.6-5.6-2.6-5.6-2.6l-1.1,5.2h-2.3c0,0-2.1-7.8-3.6-9.1c-1.5-1.3-3.7-1.7-3.7-1.7s-3.1-0.2-5-2.2c-2-2-0.1-4.4-0.1-4.4
	s-2.5,0.1-7.5-0.9c-5-1.1-3.5-4.3-3.5-4.3s-1.3,0.2-2.4-1.2c-0.8-1-1.3-3.4,0.1-6.2c1.3-2.5,3.5-3.4,3.5-3.4s-0.8-1,0.9-2.5
	c0.9-0.8,2.5-0.7,2.5-0.7s0.4-1.7,2.8-2.8c2.7-1.2,4.6-0.2,4.6-0.2s0.7-1.6,2.9-2.3C47.9,20.8,50,22,50,22s1.4-1.3,4.1-1.3
	c2.6,0,3.6,1.4,3.6,1.4s1.6-0.8,3.5-0.1c1.8,0.6,2.3,2.4,2.3,2.4s1.3-0.9,3.1-0.2c1.8,0.7,2.6,2.7,2.6,2.7s1.3-0.2,2.5,0.9
	c0.9,0.8,0.6,2.4,0.6,2.4s1.6,0.5,2.5,2.4c0.9,1.7-0.4,3.2-0.4,3.2s2.6,1.9,2.9,6.9c0.4,6.1-3.4,7.2-3.4,7.2s0.8,1.9-0.6,4
	C71.6,56.6,67.8,55,67.8,55z"/>
</svg>
