<?xml version="1.0" encoding="utf-8"?>
<!-- Generator: Adobe Illustrator 20.1.0, SVG Export Plug-In . SVG Version: 6.00 Build 0)  -->
<svg version="1.1" id="Layer_1" xmlns="http://www.w3.org/2000/svg" xmlns:xlink="http://www.w3.org/1999/xlink" x="0px" y="0px"
	 viewBox="0 0 100 100" enable-background="new 0 0 100 100" xml:space="preserve">
<path d="M46.3,76.8c-4-2.8-5.1-8.3-2.3-12.3c2.8-4,8.3-5.1,12.3-2.3s5.1,8.3,2.3,12.3c-0.6,0.9-1.4,1.7-2.3,2.3c4.8,2,8,6.7,8,11.9
	v4.4c0,1-0.8,1.8-1.8,1.8H40.1c-1,0-1.8-0.8-1.8-1.8v-4.4C38.3,83.5,41.5,78.8,46.3,76.8z M31.3,50.3c1,0,1.8-0.8,1.8-1.8v-4.4
	c0-5.2-3.2-9.9-8-11.9c4-2.8,5.1-8.3,2.3-12.3s-8.3-5.1-12.3-2.3s-5.1,8.3-2.3,12.3c0.6,0.9,1.4,1.7,2.3,2.3c-4.8,2-8,6.7-8,11.9
	v4.4c0,1,0.8,1.8,1.8,1.8L31.3,50.3z M87.5,32.2c4-2.8,5.1-8.3,2.3-12.3c-2.8-4-8.3-5.1-12.3-2.3s-5.1,8.3-2.3,12.3
	c0.6,0.9,1.4,1.7,2.3,2.3c-4.8,2-8,6.7-8,11.9v4.4c0,1,0.8,1.8,1.8,1.8h22.4c1,0,1.8-0.8,1.8-1.8v-4.4
	C95.4,38.9,92.2,34.2,87.5,32.2L87.5,32.2z M31.3,82.4c1.6,1.1,3.8,0.6,4.8-1c1.1-1.6,0.6-3.8-1-4.8c0,0-0.1,0-0.1-0.1
	c-6.9-4.3-11.8-11.1-13.7-18.9c-0.5-1.9-2.4-3-4.3-2.5c-1.8,0.5-2.9,2.3-2.5,4.1C16.9,68.8,22.9,77.1,31.3,82.4L31.3,82.4z
	 M67.7,16.2c-10.4-5-22.4-5-32.8,0c-1.7,0.8-2.5,2.9-1.6,4.7c0.8,1.7,2.9,2.5,4.7,1.6c8.4-4.1,18.3-4.1,26.7,0
	c1.7,0.8,3.8,0.1,4.7-1.6C70.2,19.2,69.4,17.1,67.7,16.2L67.7,16.2z M85.6,54.9c-1.9-0.5-3.8,0.7-4.2,2.6
	c-1.9,7.9-6.8,14.7-13.7,18.9c-1.7,1-2.2,3.1-1.2,4.8c1,1.7,3.1,2.2,4.8,1.2c0,0,0.1,0,0.1-0.1c8.4-5.3,14.4-13.6,16.8-23.2
	C88.6,57.3,87.4,55.4,85.6,54.9z"/>
</svg>
